<svg width="332" height="299" viewBox="0 0 332 299" fill="none" xmlns="http://www.w3.org/2000/svg">
<path d="M210.586 89.7797L211.049 92.1195L213.408 91.766L252.243 85.9446L241.025 116.418L240.047 119.074L242.804 119.717L283.078 129.102L256.761 149.631L254.014 151.775L256.924 153.691L290.572 175.835L254.379 183.007L250.642 183.747L252.808 186.88L273.784 217.234L234.216 209.688L230.793 209.035L231.271 212.487L235.856 245.548L200.42 224.231L197.994 222.772L196.846 225.358L183.67 255.037L159.859 223.811L158.413 221.915L156.451 223.27L127.452 243.295L120.592 208.728L120.128 206.389L117.769 206.743L78.9335 212.563L90.1529 182.09L91.1298 179.435L88.3733 178.792L48.0992 169.405L74.4165 148.878L77.164 146.734L74.2527 144.817L40.6047 122.672L76.7989 115.502L80.5354 114.762L78.3697 111.629L57.394 81.2741L96.9611 88.8209L100.385 89.4737L99.9068 86.0215L95.3213 52.9608L130.757 74.278L133.183 75.7369L134.332 73.15L147.506 43.4703L171.318 74.6972L172.764 76.5936L174.727 75.2377L203.726 55.2119L210.586 89.7797Z" fill="#EA6169" stroke="#CC3150" stroke-width="5"/>
<path d="M144.395 120.62C144.576 120.96 144.677 121.424 144.698 122.012C143.656 122.888 142.629 124.044 141.619 125.478L141.155 126.176C140.455 126.223 139.67 126.085 138.8 125.762C139.515 124.663 139.984 123.813 140.207 123.213C140.43 122.613 140.35 122.139 139.966 121.792L129.032 117.733C126.635 122.441 124.825 126.122 123.602 128.774L133.682 132.515C134.429 131.974 135.09 131.297 135.664 130.486C135.907 130.474 136.224 130.541 136.614 130.685L137.537 131.233C136.172 132.979 134.766 135.341 133.319 138.32C133.035 138.351 132.712 138.299 132.352 138.166L131.638 137.747C132.083 136.547 132.336 135.497 132.397 134.598L122.632 130.973C121.003 134.533 119.33 138.35 117.614 142.423L129.269 146.749C130.15 146.121 130.927 145.317 131.598 144.337L131.95 143.802C132.813 144.327 133.326 144.876 133.489 145.449L133.569 145.785C132.412 147.063 131.41 148.568 130.561 150.301L113.686 144.037L109.295 142.765C109.551 142.075 109.94 141.486 110.463 140.997C111.665 141.068 112.809 140.929 113.894 140.581C117.157 134.181 120.934 126.076 125.223 116.268L122.149 114.205C122.405 113.515 122.794 112.926 123.317 112.437C125.159 113.36 126.68 114.044 127.88 114.49L144.395 120.62ZM158.805 125.969L165.137 127.807C167.747 128.776 169.609 130.15 170.724 131.929C171.849 133.678 171.922 135.873 170.942 138.513C169.684 141.903 167.418 144.1 164.144 145.103C160.911 146.088 157.525 145.923 153.985 144.609L152.14 143.924L147.713 154.057L151.152 156.101C150.896 156.791 150.507 157.381 149.984 157.869C146.972 156.512 145.016 155.667 144.116 155.333C142.796 154.843 141.428 154.437 140.011 154.116L139.409 153.944C139.665 153.254 140.055 152.665 140.578 152.176C141.911 152.261 143.132 152.1 144.239 151.692C147.469 145.381 151.228 137.322 155.518 127.514L152.489 125.468C152.745 124.778 153.134 124.188 153.657 123.7C155.979 124.8 157.695 125.557 158.805 125.969ZM157.807 143.416C159.992 143.783 161.89 143.498 163.501 142.56C165.153 141.603 166.274 140.33 166.864 138.74C167.455 137.15 167.626 135.677 167.378 134.322C167.13 132.967 166.441 131.927 165.311 131.2L159.326 128.978C156.811 133.916 154.744 138.149 153.127 141.679L157.807 143.416ZM196.012 173.01C195.756 173.7 195.367 174.289 194.844 174.778C191.832 173.42 189.771 172.536 188.661 172.124L183.819 170.685C184.075 169.995 184.465 169.406 184.987 168.917C185.935 169.03 186.872 169.036 187.797 168.936C188.637 163.821 189.105 160.905 189.2 160.189C185.723 158.797 183.415 157.889 182.275 157.465C181.165 157.053 179.838 156.629 178.293 156.192L171.327 162.822L174.863 165.159C174.606 165.849 174.217 166.438 173.694 166.927C171.372 165.826 169.656 165.069 168.546 164.657L164.154 163.385C164.41 162.695 164.8 162.106 165.323 161.617C166.383 161.704 167.424 161.612 168.445 161.343C177.73 153.525 185.433 146.52 191.555 140.328L191.73 138.754C193.254 138.603 194.75 138.8 196.22 139.346C194.308 153.142 193.077 163.677 192.528 170.948L196.012 173.01ZM180.287 154.27C181.664 154.883 183.087 155.463 184.557 156.008C186.057 156.565 187.718 157.148 189.54 157.756C189.815 155.912 190.351 151.435 191.147 144.323C188.477 146.643 184.857 149.959 180.287 154.27ZM202.911 174.546C203.228 174.152 203.721 173.926 204.392 173.867C205.073 173.779 205.714 173.846 206.314 174.069C206.914 174.291 207.329 174.599 207.558 174.991C207.818 175.395 207.887 175.762 207.764 176.092L206.938 177.628C206.274 178.406 205.147 178.5 203.557 177.909C202.957 177.687 202.542 177.379 202.312 176.986C202.112 176.605 202.079 176.234 202.213 175.874L202.911 174.546ZM207.397 170.323L206.445 169.714C207.231 168.333 208.648 165.344 210.696 160.745C212.745 156.146 214.582 151.657 216.208 147.277L219.985 147.86L220.348 148.814C218.445 152.101 216.228 156.142 213.697 160.937C211.207 165.713 209.645 168.956 209.01 170.666C208.565 170.672 208.027 170.557 207.397 170.323Z" fill="#F1C4AD"/>
<path d="M144.395 120.62L146.602 119.446L146.156 118.607L145.265 118.276L144.395 120.62ZM144.698 122.012L146.306 123.926L147.239 123.142L147.196 121.924L144.698 122.012ZM141.619 125.478L139.575 124.038L139.556 124.066L139.537 124.094L141.619 125.478ZM141.155 126.176L141.324 128.67L142.555 128.587L143.237 127.559L141.155 126.176ZM138.8 125.762L136.704 124.399L135 127.019L137.93 128.106L138.8 125.762ZM139.966 121.792L141.645 119.939L141.288 119.616L140.836 119.448L139.966 121.792ZM129.032 117.733L129.902 115.389L127.814 114.614L126.803 116.599L129.032 117.733ZM123.602 128.774L121.332 127.726L120.201 130.178L122.732 131.117L123.602 128.774ZM133.682 132.515L132.812 134.859L134.066 135.325L135.149 134.539L133.682 132.515ZM135.664 130.486L135.54 127.989L134.326 128.049L133.623 129.042L135.664 130.486ZM136.614 130.685L137.889 128.535L137.695 128.42L137.484 128.342L136.614 130.685ZM137.537 131.233L139.507 132.772L141.258 130.533L138.812 129.083L137.537 131.233ZM133.319 138.32L133.589 140.805L134.964 140.656L135.568 139.412L133.319 138.32ZM132.352 138.166L131.088 140.323L131.277 140.433L131.482 140.51L132.352 138.166ZM131.638 137.747L129.294 136.877L128.564 138.843L130.373 139.904L131.638 137.747ZM132.397 134.598L134.891 134.767L135.017 132.904L133.267 132.255L132.397 134.598ZM122.632 130.973L123.502 128.63L121.325 127.822L120.358 129.933L122.632 130.973ZM117.614 142.423L115.31 141.452L114.296 143.858L116.744 144.767L117.614 142.423ZM129.269 146.749L128.399 149.093L129.641 149.554L130.72 148.785L129.269 146.749ZM131.598 144.337L133.66 145.749L133.673 145.731L133.686 145.712L131.598 144.337ZM131.95 143.802L133.249 141.666L131.188 140.412L129.862 142.427L131.95 143.802ZM133.489 145.449L135.922 144.872L135.909 144.818L135.894 144.764L133.489 145.449ZM133.569 145.785L135.422 147.464L136.305 146.489L136.002 145.209L133.569 145.785ZM130.561 150.301L129.691 152.645L131.812 153.432L132.807 151.4L130.561 150.301ZM113.686 144.037L114.556 141.693L114.47 141.661L114.382 141.636L113.686 144.037ZM109.295 142.765L106.951 141.895L106.014 144.418L108.599 145.167L109.295 142.765ZM110.463 140.997L110.61 138.502L109.539 138.438L108.756 139.171L110.463 140.997ZM113.894 140.581L114.658 142.962L115.649 142.644L116.121 141.717L113.894 140.581ZM125.223 116.268L127.514 117.27L128.351 115.356L126.616 114.192L125.223 116.268ZM122.149 114.205L119.805 113.335L119.119 115.183L120.756 116.281L122.149 114.205ZM123.317 112.437L124.437 110.202L122.881 109.423L121.61 110.611L123.317 112.437ZM144.395 120.62L142.188 121.794C142.149 121.721 142.151 121.696 142.163 121.754C142.176 121.811 142.193 121.921 142.199 122.1L144.698 122.012L147.196 121.924C147.168 121.138 147.031 120.252 146.602 119.446L144.395 120.62ZM144.698 122.012L143.089 120.099C141.842 121.147 140.676 122.476 139.575 124.038L141.619 125.478L143.663 126.917C144.583 125.611 145.469 124.63 146.306 123.926L144.698 122.012ZM141.619 125.478L139.537 124.094L139.073 124.792L141.155 126.176L143.237 127.559L143.701 126.861L141.619 125.478ZM141.155 126.176L140.987 123.681C140.734 123.699 140.31 123.656 139.67 123.419L138.8 125.762L137.93 128.106C139.03 128.514 140.176 128.748 141.324 128.67L141.155 126.176ZM138.8 125.762L140.895 127.126C141.63 125.997 142.227 124.955 142.551 124.083L140.207 123.213L137.863 122.343C137.742 122.67 137.401 123.328 136.704 124.399L138.8 125.762ZM140.207 123.213L142.551 124.083C142.766 123.504 142.913 122.78 142.779 121.99C142.638 121.156 142.218 120.458 141.645 119.939L139.966 121.792L138.288 123.645C138.098 123.473 137.91 123.185 137.849 122.825C137.796 122.509 137.871 122.322 137.863 122.343L140.207 123.213ZM139.966 121.792L140.836 119.448L129.902 115.389L129.032 117.733L128.162 120.077L139.096 124.136L139.966 121.792ZM129.032 117.733L126.803 116.599C124.402 121.317 122.575 125.031 121.332 127.726L123.602 128.774L125.872 129.821C127.075 127.212 128.868 123.566 131.26 118.867L129.032 117.733ZM123.602 128.774L122.732 131.117L132.812 134.859L133.682 132.515L134.552 130.172L124.472 126.43L123.602 128.774ZM133.682 132.515L135.149 134.539C136.134 133.825 136.984 132.948 137.704 131.931L135.664 130.486L133.623 129.042C133.195 129.647 132.724 130.122 132.214 130.491L133.682 132.515ZM135.664 130.486L135.788 132.983C135.71 132.987 135.652 132.983 135.619 132.98C135.585 132.977 135.569 132.973 135.571 132.974C135.574 132.974 135.589 132.978 135.62 132.987C135.65 132.996 135.691 133.009 135.744 133.029L136.614 130.685L137.484 128.342C136.97 128.151 136.28 127.953 135.54 127.989L135.664 130.486ZM136.614 130.685L135.339 132.836L136.262 133.383L137.537 131.233L138.812 129.083L137.889 128.535L136.614 130.685ZM137.537 131.233L135.568 129.693C134.055 131.628 132.561 134.16 131.071 137.228L133.319 138.32L135.568 139.412C136.972 136.523 138.289 134.33 139.507 132.772L137.537 131.233ZM133.319 138.32L133.049 135.835C133.156 135.823 133.229 135.831 133.258 135.836C133.285 135.84 133.274 135.841 133.222 135.822L132.352 138.166L131.482 140.51C132.088 140.734 132.81 140.89 133.589 140.805L133.319 138.32ZM132.352 138.166L133.616 136.009L132.902 135.59L131.638 137.747L130.373 139.904L131.088 140.323L132.352 138.166ZM131.638 137.747L133.981 138.617C134.478 137.278 134.809 135.983 134.891 134.767L132.397 134.598L129.902 134.43C129.863 135.012 129.688 135.816 129.294 136.877L131.638 137.747ZM132.397 134.598L133.267 132.255L123.502 128.63L122.632 130.973L121.762 133.317L131.527 136.942L132.397 134.598ZM122.632 130.973L120.358 129.933C118.718 133.519 117.035 137.358 115.31 141.452L117.614 142.423L119.917 143.394C121.626 139.341 123.288 135.548 124.905 132.014L122.632 130.973ZM117.614 142.423L116.744 144.767L128.399 149.093L129.269 146.749L130.139 144.405L118.484 140.079L117.614 142.423ZM129.269 146.749L130.72 148.785C131.862 147.971 132.84 146.948 133.66 145.749L131.598 144.337L129.535 142.924C129.014 143.685 128.439 144.271 127.818 144.713L129.269 146.749ZM131.598 144.337L133.686 145.712L134.038 145.177L131.95 143.802L129.862 142.427L129.51 142.962L131.598 144.337ZM131.95 143.802L130.65 145.938C130.95 146.12 131.097 146.252 131.156 146.315C131.21 146.373 131.137 146.316 131.085 146.133L133.489 145.449L135.894 144.764C135.472 143.284 134.302 142.307 133.249 141.666L131.95 143.802ZM133.489 145.449L131.056 146.025L131.136 146.362L133.569 145.785L136.002 145.209L135.922 144.872L133.489 145.449ZM133.569 145.785L131.716 144.107C130.384 145.578 129.255 147.283 128.316 149.202L130.561 150.301L132.807 151.4C133.564 149.853 134.44 148.548 135.422 147.464L133.569 145.785ZM130.561 150.301L131.431 147.957L114.556 141.693L113.686 144.037L112.816 146.381L129.691 152.645L130.561 150.301ZM113.686 144.037L114.382 141.636L109.99 140.364L109.295 142.765L108.599 145.167L112.991 146.438L113.686 144.037ZM109.295 142.765L111.638 143.635C111.763 143.298 111.939 143.039 112.17 142.824L110.463 140.997L108.756 139.171C107.941 139.932 107.338 140.852 106.951 141.895L109.295 142.765ZM110.463 140.997L110.316 143.493C111.809 143.581 113.263 143.41 114.658 142.962L113.894 140.581L113.13 138.201C112.356 138.449 111.522 138.555 110.61 138.502L110.463 140.997ZM113.894 140.581L116.121 141.717C119.415 135.257 123.213 127.104 127.514 117.27L125.223 116.268L122.933 115.266C118.654 125.049 114.9 133.105 111.667 139.446L113.894 140.581ZM125.223 116.268L126.616 114.192L123.542 112.129L122.149 114.205L120.756 116.281L123.83 118.344L125.223 116.268ZM122.149 114.205L124.493 115.075C124.618 114.738 124.794 114.48 125.024 114.264L123.317 112.437L121.61 110.611C120.795 111.372 120.192 112.292 119.805 113.335L122.149 114.205ZM123.317 112.437L122.198 114.673C124.078 115.615 125.69 116.343 127.01 116.833L127.88 114.49L128.75 112.146C127.671 111.745 126.24 111.105 124.437 110.202L123.317 112.437ZM127.88 114.49L127.01 116.833L143.525 122.964L144.395 120.62L145.265 118.276L128.75 112.146L127.88 114.49ZM158.805 125.969L157.935 128.313L158.02 128.344L158.108 128.37L158.805 125.969ZM165.137 127.807L166.007 125.464L165.921 125.432L165.834 125.407L165.137 127.807ZM170.724 131.929L168.605 133.257L168.613 133.269L168.621 133.282L170.724 131.929ZM164.144 145.103L164.872 147.495L164.877 147.493L164.144 145.103ZM152.14 143.924L153.01 141.58L150.795 140.758L149.849 142.923L152.14 143.924ZM147.713 154.057L145.422 153.056L144.539 155.078L146.435 156.206L147.713 154.057ZM151.152 156.101L153.496 156.971L154.221 155.017L152.43 153.952L151.152 156.101ZM149.984 157.869L148.957 160.149L150.475 160.833L151.691 159.696L149.984 157.869ZM140.011 154.116L139.323 156.52L139.39 156.539L139.458 156.554L140.011 154.116ZM139.409 153.944L137.066 153.074L136.126 155.605L138.722 156.347L139.409 153.944ZM140.578 152.176L140.737 149.681L139.659 149.612L138.87 150.35L140.578 152.176ZM144.239 151.692L145.104 154.037L146.019 153.7L146.464 152.831L144.239 151.692ZM155.518 127.514L157.808 128.515L158.643 126.607L156.917 125.442L155.518 127.514ZM152.489 125.468L150.145 124.598L149.461 126.44L151.089 127.539L152.489 125.468ZM153.657 123.7L154.728 121.441L153.192 120.712L151.95 121.873L153.657 123.7ZM157.807 143.416L156.937 145.76L157.159 145.842L157.392 145.882L157.807 143.416ZM163.501 142.56L162.248 140.397L162.243 140.4L163.501 142.56ZM167.378 134.322L164.919 134.772L164.919 134.772L167.378 134.322ZM165.311 131.2L166.663 129.097L166.435 128.951L166.181 128.856L165.311 131.2ZM159.326 128.978L160.196 126.635L158.109 125.86L157.099 127.844L159.326 128.978ZM153.127 141.679L150.854 140.638L149.732 143.086L152.257 144.023L153.127 141.679ZM158.805 125.969L158.108 128.37L164.44 130.208L165.137 127.807L165.834 125.407L159.502 123.568L158.805 125.969ZM165.137 127.807L164.267 130.151C166.528 130.991 167.866 132.077 168.605 133.257L170.724 131.929L172.842 130.602C171.352 128.224 168.966 126.562 166.007 125.464L165.137 127.807ZM170.724 131.929L168.621 133.282C169.181 134.152 169.409 135.459 168.599 137.643L170.942 138.513L173.286 139.383C174.435 136.287 174.517 133.204 172.826 130.576L170.724 131.929ZM170.942 138.513L168.599 137.643C167.593 140.35 165.893 141.952 163.411 142.713L164.144 145.103L164.877 147.493C168.942 146.247 171.774 143.455 173.286 139.383L170.942 138.513ZM164.144 145.103L163.416 142.711C160.768 143.518 157.945 143.412 154.855 142.265L153.985 144.609L153.115 146.952C157.105 148.433 161.055 148.657 164.872 147.495L164.144 145.103ZM153.985 144.609L154.855 142.265L153.01 141.58L152.14 143.924L151.27 146.268L153.115 146.952L153.985 144.609ZM152.14 143.924L149.849 142.923L145.422 153.056L147.713 154.057L150.004 155.058L154.431 144.925L152.14 143.924ZM147.713 154.057L146.435 156.206L149.875 158.25L151.152 156.101L152.43 153.952L148.991 151.908L147.713 154.057ZM151.152 156.101L148.809 155.231C148.684 155.568 148.508 155.827 148.277 156.043L149.984 157.869L151.691 159.696C152.506 158.934 153.109 158.014 153.496 156.971L151.152 156.101ZM149.984 157.869L151.011 155.59C148.02 154.242 145.981 153.358 144.986 152.989L144.116 155.333L143.246 157.676C144.051 157.975 145.924 158.782 148.957 160.149L149.984 157.869ZM144.116 155.333L144.986 152.989C143.559 152.459 142.085 152.023 140.564 151.678L140.011 154.116L139.458 156.554C140.771 156.852 142.033 157.226 143.246 157.676L144.116 155.333ZM140.011 154.116L140.699 151.712L140.097 151.54L139.409 153.944L138.722 156.347L139.323 156.52L140.011 154.116ZM139.409 153.944L141.753 154.814C141.878 154.477 142.054 154.218 142.285 154.002L140.578 152.176L138.87 150.35C138.056 151.111 137.453 152.031 137.066 153.074L139.409 153.944ZM140.578 152.176L140.418 154.671C142.053 154.776 143.628 154.581 145.104 154.037L144.239 151.692L143.374 149.346C142.635 149.619 141.769 149.747 140.737 149.681L140.578 152.176ZM144.239 151.692L146.464 152.831C149.726 146.459 153.508 138.349 157.808 128.515L155.518 127.514L153.227 126.512C148.949 136.295 145.212 144.304 142.013 150.553L144.239 151.692ZM155.518 127.514L156.917 125.442L153.888 123.396L152.489 125.468L151.089 127.539L154.119 129.585L155.518 127.514ZM152.489 125.468L154.832 126.338C154.957 126.001 155.133 125.742 155.364 125.526L153.657 123.7L151.95 121.873C151.135 122.635 150.532 123.554 150.145 124.598L152.489 125.468ZM153.657 123.7L152.586 125.959C154.916 127.063 156.716 127.86 157.935 128.313L158.805 125.969L159.675 123.625C158.674 123.254 157.042 122.538 154.728 121.441L153.657 123.7ZM157.807 143.416L157.392 145.882C160.04 146.327 162.551 146.006 164.758 144.721L163.501 142.56L162.243 140.4C161.228 140.991 159.943 141.24 158.221 140.951L157.807 143.416ZM163.501 142.56L164.753 144.724C166.842 143.514 168.39 141.813 169.208 139.61L166.864 138.74L164.521 137.87C164.158 138.847 163.464 139.692 162.248 140.397L163.501 142.56ZM166.864 138.74L169.208 139.61C169.919 137.695 170.183 135.762 169.837 133.872L167.378 134.322L164.919 134.772C165.069 135.593 164.99 136.605 164.521 137.87L166.864 138.74ZM167.378 134.322L169.837 133.872C169.468 131.857 168.391 130.209 166.663 129.097L165.311 131.2L163.959 133.303C164.49 133.645 164.791 134.078 164.919 134.772L167.378 134.322ZM165.311 131.2L166.181 128.856L160.196 126.635L159.326 128.978L158.456 131.322L164.441 133.544L165.311 131.2ZM159.326 128.978L157.099 127.844C154.574 132.8 152.491 137.066 150.854 140.638L153.127 141.679L155.4 142.72C156.998 139.232 159.048 135.032 161.554 130.113L159.326 128.978ZM153.127 141.679L152.257 144.023L156.937 145.76L157.807 143.416L158.677 141.072L153.997 139.335L153.127 141.679ZM196.012 173.01L198.356 173.88L199.083 171.921L197.285 170.858L196.012 173.01ZM194.844 174.778L193.817 177.057L195.335 177.741L196.551 176.604L194.844 174.778ZM188.661 172.124L189.531 169.78L189.453 169.751L189.373 169.728L188.661 172.124ZM183.819 170.685L181.475 169.815L180.546 172.32L183.107 173.081L183.819 170.685ZM184.987 168.917L185.283 166.435L184.129 166.297L183.28 167.091L184.987 168.917ZM187.797 168.936L188.067 171.421L189.955 171.216L190.263 169.341L187.797 168.936ZM189.2 160.189L191.678 160.518L191.934 158.592L190.13 157.869L189.2 160.189ZM178.293 156.192L178.974 153.786L177.602 153.399L176.57 154.381L178.293 156.192ZM171.327 162.822L169.603 161.011L167.328 163.176L169.948 164.908L171.327 162.822ZM174.863 165.159L177.206 166.029L177.897 164.167L176.241 163.073L174.863 165.159ZM173.694 166.927L172.623 169.186L174.159 169.914L175.401 168.753L173.694 166.927ZM168.546 164.657L169.416 162.313L169.33 162.281L169.242 162.256L168.546 164.657ZM164.154 163.385L161.811 162.515L160.874 165.038L163.459 165.787L164.154 163.385ZM165.323 161.617L165.526 159.126L164.423 159.036L163.615 159.791L165.323 161.617ZM168.445 161.343L169.083 163.76L169.626 163.617L170.055 163.255L168.445 161.343ZM191.555 140.328L193.333 142.085L193.944 141.467L194.04 140.603L191.555 140.328ZM191.73 138.754L191.483 136.266L189.468 136.466L189.245 138.478L191.73 138.754ZM196.22 139.346L198.697 139.689L198.972 137.701L197.09 137.002L196.22 139.346ZM192.528 170.948L190.035 170.76L189.918 172.309L191.255 173.1L192.528 170.948ZM180.287 154.27L178.571 152.451L175.842 155.026L179.269 156.553L180.287 154.27ZM189.54 157.756L188.749 160.127L191.574 161.07L192.013 158.124L189.54 157.756ZM191.147 144.323L193.632 144.602L194.345 138.234L189.508 142.436L191.147 144.323ZM196.012 173.01L193.669 172.14C193.544 172.476 193.368 172.735 193.137 172.951L194.844 174.778L196.551 176.604C197.366 175.842 197.969 174.923 198.356 173.88L196.012 173.01ZM194.844 174.778L195.871 172.498C192.868 171.145 190.732 170.226 189.531 169.78L188.661 172.124L187.791 174.468C188.81 174.846 190.796 175.696 193.817 177.057L194.844 174.778ZM188.661 172.124L189.373 169.728L184.531 168.289L183.819 170.685L183.107 173.081L187.949 174.52L188.661 172.124ZM183.819 170.685L186.163 171.555C186.288 171.218 186.464 170.959 186.695 170.743L184.987 168.917L183.28 167.091C182.466 167.852 181.863 168.772 181.475 169.815L183.819 170.685ZM184.987 168.917L184.692 171.4C185.823 171.534 186.949 171.543 188.067 171.421L187.797 168.936L187.527 166.45C186.795 166.53 186.048 166.526 185.283 166.435L184.987 168.917ZM187.797 168.936L190.263 169.341C191.1 164.254 191.577 161.284 191.678 160.518L189.2 160.189L186.722 159.861C186.633 160.527 186.175 163.388 185.33 168.53L187.797 168.936ZM189.2 160.189L190.13 157.869C186.659 156.478 184.32 155.558 183.145 155.122L182.275 157.465L181.405 159.809C182.51 160.219 184.788 161.115 188.27 162.51L189.2 160.189ZM182.275 157.465L183.145 155.122C181.955 154.68 180.561 154.235 178.974 153.786L178.293 156.192L177.613 158.598C179.114 159.022 180.375 159.427 181.405 159.809L182.275 157.465ZM178.293 156.192L176.57 154.381L169.603 161.011L171.327 162.822L173.05 164.633L180.017 158.003L178.293 156.192ZM171.327 162.822L169.948 164.908L173.484 167.244L174.863 165.159L176.241 163.073L172.705 160.736L171.327 162.822ZM174.863 165.159L172.519 164.289C172.394 164.626 172.218 164.884 171.987 165.1L173.694 166.927L175.401 168.753C176.216 167.991 176.819 167.072 177.206 166.029L174.863 165.159ZM173.694 166.927L174.765 164.668C172.435 163.563 170.636 162.766 169.416 162.313L168.546 164.657L167.676 167.001C168.677 167.372 170.309 168.089 172.623 169.186L173.694 166.927ZM168.546 164.657L169.242 162.256L164.85 160.984L164.154 163.385L163.459 165.787L167.851 167.059L168.546 164.657ZM164.154 163.385L166.498 164.255C166.623 163.918 166.799 163.66 167.03 163.444L165.323 161.617L163.615 159.791C162.801 160.552 162.198 161.472 161.811 162.515L164.154 163.385ZM165.323 161.617L165.12 164.109C166.46 164.218 167.785 164.102 169.083 163.76L168.445 161.343L167.808 158.926C167.062 159.122 166.305 159.189 165.526 159.126L165.323 161.617ZM168.445 161.343L170.055 163.255C179.378 155.406 187.142 148.348 193.333 142.085L191.555 140.328L189.777 138.57C183.725 144.692 176.082 151.645 166.835 159.431L168.445 161.343ZM191.555 140.328L194.04 140.603L194.214 139.03L191.73 138.754L189.245 138.478L189.07 140.052L191.555 140.328ZM191.73 138.754L191.976 141.242C193.113 141.129 194.228 141.273 195.35 141.69L196.22 139.346L197.09 137.002C195.273 136.327 193.394 136.077 191.483 136.266L191.73 138.754ZM196.22 139.346L193.744 139.002C191.829 152.813 190.59 163.409 190.035 170.76L192.528 170.948L195.021 171.136C195.564 163.944 196.786 153.472 198.697 139.689L196.22 139.346ZM192.528 170.948L191.255 173.1L194.739 175.161L196.012 173.01L197.285 170.858L193.801 168.796L192.528 170.948ZM180.287 154.27L179.269 156.553C180.696 157.189 182.169 157.789 183.687 158.352L184.557 156.008L185.427 153.665C184.005 153.137 182.631 152.577 181.304 151.986L180.287 154.27ZM184.557 156.008L183.687 158.352C185.217 158.92 186.905 159.512 188.749 160.127L189.54 157.756L190.332 155.384C188.531 154.783 186.896 154.21 185.427 153.665L184.557 156.008ZM189.54 157.756L192.013 158.124C192.296 156.226 192.837 151.697 193.632 144.602L191.147 144.323L188.663 144.045C187.864 151.172 187.334 155.599 187.067 157.387L189.54 157.756ZM191.147 144.323L189.508 142.436C186.799 144.789 183.15 148.132 178.571 152.451L180.287 154.27L182.002 156.088C186.563 151.786 190.155 148.497 192.787 146.211L191.147 144.323ZM202.911 174.546L200.962 172.98L200.81 173.169L200.698 173.383L202.911 174.546ZM204.392 173.867L204.609 176.358L204.661 176.353L204.713 176.346L204.392 173.867ZM207.558 174.991L205.401 176.254L205.428 176.3L205.456 176.344L207.558 174.991ZM207.764 176.092L209.966 177.276L210.048 177.124L210.108 176.962L207.764 176.092ZM206.938 177.628L208.839 179.252L209.013 179.048L209.14 178.813L206.938 177.628ZM202.312 176.986L200.098 178.147L200.125 178.199L200.155 178.25L202.312 176.986ZM202.213 175.874L200 174.712L199.925 174.854L199.869 175.004L202.213 175.874ZM207.397 170.323L206.049 172.429L206.275 172.574L206.527 172.667L207.397 170.323ZM206.445 169.714L204.272 168.478L203.099 170.54L205.097 171.82L206.445 169.714ZM210.696 160.745L208.413 159.728V159.728L210.696 160.745ZM216.208 147.277L216.589 144.806L214.574 144.495L213.864 146.407L216.208 147.277ZM219.985 147.86L222.322 146.971L221.804 145.611L220.366 145.389L219.985 147.86ZM220.348 148.814L222.511 150.066L223.107 149.037L222.684 147.925L220.348 148.814ZM213.697 160.937L211.486 159.77L211.48 159.782L213.697 160.937ZM209.01 170.666L209.04 173.166L210.756 173.146L211.354 171.536L209.01 170.666ZM202.911 174.546L204.859 176.113C204.812 176.172 204.758 176.224 204.701 176.267C204.646 176.31 204.596 176.337 204.561 176.353C204.493 176.384 204.494 176.368 204.609 176.358L204.392 173.867L204.175 171.377C203.058 171.474 201.834 171.896 200.962 172.98L202.911 174.546ZM204.392 173.867L204.713 176.346C205.023 176.306 205.252 176.341 205.444 176.412L206.314 174.069L207.184 171.725C206.176 171.351 205.123 171.251 204.07 171.388L204.392 173.867ZM206.314 174.069L205.444 176.412C205.573 176.46 205.607 176.49 205.586 176.475C205.559 176.455 205.478 176.386 205.401 176.254L207.558 174.991L209.716 173.728C209.096 172.669 208.108 172.068 207.184 171.725L206.314 174.069ZM207.558 174.991L205.456 176.344C205.456 176.344 205.439 176.318 205.418 176.268C205.396 176.217 205.367 176.136 205.347 176.029C205.304 175.795 205.315 175.508 205.421 175.222L207.764 176.092L210.108 176.962C210.596 175.647 210.18 174.445 209.661 173.638L207.558 174.991ZM207.764 176.092L205.563 174.908L204.736 176.444L206.938 177.628L209.14 178.813L209.966 177.276L207.764 176.092ZM206.938 177.628L205.037 176.005C205.088 175.945 205.166 175.881 205.26 175.835C205.349 175.792 205.403 175.789 205.388 175.79C205.367 175.792 205.281 175.795 205.112 175.764C204.944 175.734 204.717 175.673 204.427 175.566L203.557 177.909L202.687 180.253C204.53 180.937 207.099 181.289 208.839 179.252L206.938 177.628ZM203.557 177.909L204.427 175.566C204.297 175.518 204.264 175.488 204.285 175.503C204.311 175.523 204.393 175.592 204.47 175.723L202.312 176.986L200.155 178.25C200.775 179.309 201.763 179.91 202.687 180.253L203.557 177.909ZM202.312 176.986L204.527 175.826C204.556 175.882 204.611 176.011 204.628 176.2C204.645 176.397 204.615 176.587 204.557 176.744L202.213 175.874L199.869 175.004C199.458 176.113 199.613 177.222 200.098 178.147L202.312 176.986ZM202.213 175.874L204.426 177.037L205.124 175.709L202.911 174.546L200.698 173.383L200 174.712L202.213 175.874ZM207.397 170.323L208.745 168.218L207.793 167.609L206.445 169.714L205.097 171.82L206.049 172.429L207.397 170.323ZM206.445 169.714L208.618 170.951C209.476 169.444 210.942 166.337 212.98 161.762L210.696 160.745L208.413 159.728C206.354 164.35 204.986 167.223 204.272 168.478L206.445 169.714ZM210.696 160.745L212.98 161.762C215.048 157.119 216.906 152.58 218.551 148.147L216.208 147.277L213.864 146.407C212.258 150.734 210.441 155.174 208.413 159.728L210.696 160.745ZM216.208 147.277L215.826 149.748L219.604 150.331L219.985 147.86L220.366 145.389L216.589 144.806L216.208 147.277ZM219.985 147.86L217.648 148.749L218.011 149.702L220.348 148.814L222.684 147.925L222.322 146.971L219.985 147.86ZM220.348 148.814L218.184 147.561C216.26 150.886 214.026 154.958 211.486 159.77L213.697 160.937L215.908 162.104C218.429 157.327 220.63 153.316 222.511 150.066L220.348 148.814ZM213.697 160.937L211.48 159.782C209.002 164.536 207.365 167.916 206.667 169.796L209.01 170.666L211.354 171.536C211.925 169.997 213.413 166.891 215.914 162.093L213.697 160.937ZM209.01 170.666L208.981 168.167C208.982 168.167 208.967 168.167 208.934 168.163C208.902 168.16 208.855 168.152 208.792 168.139C208.665 168.112 208.492 168.063 208.267 167.98L207.397 170.323L206.527 172.667C207.313 172.959 208.173 173.176 209.04 173.166L209.01 170.666Z" fill="#F1C4AD"/>
</svg>
