<svg width="357" height="62" viewBox="0 0 357 62" fill="none" xmlns="http://www.w3.org/2000/svg">
<path d="M35.6993 29.4001C42.0693 31.2201 47.7393 29.1901 47.7393 21.0001C47.7393 12.1801 41.0193 9.87012 36.5393 8.68011C37.3093 12.3901 36.3293 22.1901 35.6993 29.4001ZM35.0693 38.5701C35.3493 51.1701 38.2193 51.1701 38.2193 53.9001C38.2193 56.8401 34.9293 59.2901 29.8893 59.2901C24.3593 59.2901 21.2093 56.3501 21.2093 50.4701C21.2093 45.5701 23.3093 39.2001 23.3093 32.2701C23.3093 25.3401 21.2093 19.6701 21.2093 14.3501C21.2093 11.2701 22.3293 8.26012 26.5293 8.47012C27.5093 8.54012 27.6493 8.40011 27.6493 8.19012C27.6493 7.98011 27.5093 7.84012 26.8093 7.63012C24.9893 7.07011 22.8193 7.21012 20.8593 7.56012C11.1993 9.03011 10.8493 13.9301 14.9793 17.0801C21.3493 21.9101 17.2193 30.9401 9.65929 31.0101C5.03929 31.0801 -0.000706116 27.6501 -0.000706116 18.6901C-0.000706116 7.56012 8.04929 0.420116 30.5893 0.420116C35.6993 0.420116 62.5093 0.000113249 62.5093 19.3901C62.5093 36.6101 41.3693 38.1501 32.4093 34.0201C31.0793 33.4601 30.8693 33.6001 30.8693 33.9501C30.8693 34.2301 31.0093 34.3001 31.5693 34.7201C31.9193 34.9301 32.7593 35.3501 33.4593 35.7701C34.4393 36.3301 35.0693 37.3801 35.0693 38.5701ZM69.8916 48.0901C69.8916 46.3635 70.3116 45.1501 71.1516 44.4501C71.9916 43.7501 72.9949 43.4001 74.1616 43.4001C75.3749 43.4001 76.4016 43.7501 77.2416 44.4501C78.1282 45.1501 78.5716 46.3635 78.5716 48.0901C78.5716 49.7701 78.1282 50.9835 77.2416 51.7301C76.4016 52.4768 75.3749 52.8501 74.1616 52.8501C72.9949 52.8501 71.9916 52.4768 71.1516 51.7301C70.3116 50.9835 69.8916 49.7701 69.8916 48.0901ZM141.822 59.2901C135.312 59.2901 131.532 52.8501 138.392 39.2001C138.462 39.0601 138.672 38.5701 138.182 38.5701C137.902 38.5701 137.692 38.6401 136.642 40.9501C133.142 48.0201 129.432 59.2201 118.792 59.2201C103.322 59.2201 108.852 35.5601 108.852 24.9201C108.852 20.6501 108.012 15.8901 107.802 14.9101C106.612 7.98011 103.462 4.97012 100.872 6.79011C98.772 8.19012 98.142 11.7601 101.502 16.5201C106.612 23.7301 104.442 30.9401 97.302 31.0101C92.332 31.0801 87.222 27.6501 87.222 18.2001C87.222 1.05012 104.232 0.420116 110.182 0.420116C119.912 0.420116 122.782 2.17011 122.782 7.63012C122.782 12.2501 120.612 17.0801 120.612 30.7301C120.612 38.2901 119.982 45.0101 124.602 45.0101C130.762 45.0101 134.472 33.1801 134.472 25.8301C134.472 19.9501 132.092 14.5601 132.092 9.10012C132.092 2.52011 135.522 0.420116 140.352 0.420116C145.182 0.420116 148.192 2.45012 148.192 8.89012C148.192 14.2101 146.022 19.8801 146.022 34.0901C146.022 51.4501 149.172 51.0301 149.172 53.9001C149.172 56.8401 145.882 59.2901 141.822 59.2901ZM158.822 48.0901C158.822 46.3635 159.242 45.1501 160.082 44.4501C160.922 43.7501 161.925 43.4001 163.092 43.4001C164.305 43.4001 165.332 43.7501 166.172 44.4501C167.058 45.1501 167.502 46.3635 167.502 48.0901C167.502 49.7701 167.058 50.9835 166.172 51.7301C165.332 52.4768 164.305 52.8501 163.092 52.8501C161.925 52.8501 160.922 52.4768 160.082 51.7301C159.242 50.9835 158.822 49.7701 158.822 48.0901ZM204.502 14.4201C205.902 18.2701 209.542 29.8901 209.542 32.5501C209.542 51.3801 212.762 51.0301 212.762 53.9001C212.762 56.8401 209.402 59.2901 204.362 59.2901C198.832 59.2901 195.682 56.3501 195.682 50.4701C195.682 45.5701 197.782 40.1801 197.782 28.2801C197.782 20.6501 196.942 15.8901 196.732 14.9101C195.542 7.98011 192.392 4.97012 189.802 6.79011C187.702 8.19012 187.072 11.7601 190.432 16.5201C195.542 23.7301 193.372 30.9401 186.232 31.0101C181.262 31.0801 176.152 27.6501 176.152 18.2001C176.152 1.05012 193.162 0.420116 199.112 0.420116C202.332 0.420116 212.342 0.000113249 217.242 7.84012C220.322 12.7401 221.722 21.4901 223.892 37.3101C223.962 37.6601 224.172 37.7301 224.452 37.7301C224.732 37.7301 224.872 37.5901 224.872 37.2401C224.872 28.2101 226.552 12.4601 234.672 3.78011C237.752 0.420116 239.642 0.420116 242.862 0.420116C247.622 0.420116 250.632 2.45012 250.632 8.89012C250.632 14.2101 248.532 19.8801 248.532 33.3201C248.532 51.4501 252.382 51.0301 252.382 54.0401C252.382 56.8401 249.092 59.2901 243.982 59.2901C238.522 59.2901 235.302 56.3501 235.302 43.8201C235.302 39.9701 235.652 19.6001 239.362 13.4401C239.922 12.6001 239.992 12.1801 239.712 12.0401C239.292 11.8301 237.962 13.0201 236.842 15.2601C234.672 19.6001 233.062 28.2101 232.362 35.7701C231.732 43.4001 232.222 47.3201 232.012 49.0001C231.312 53.9701 220.602 57.3301 215.912 49.0701C211.782 41.6501 210.942 22.9601 205.132 14.1401C204.992 13.9301 204.852 13.8601 204.642 13.9301C204.432 14.0001 204.432 14.2101 204.502 14.4201ZM261.697 48.0901C261.697 46.3635 262.117 45.1501 262.957 44.4501C263.797 43.7501 264.8 43.4001 265.967 43.4001C267.18 43.4001 268.207 43.7501 269.047 44.4501C269.934 45.1501 270.377 46.3635 270.377 48.0901C270.377 49.7701 269.934 50.9835 269.047 51.7301C268.207 52.4768 267.18 52.8501 265.967 52.8501C264.8 52.8501 263.797 52.4768 262.957 51.7301C262.117 50.9835 261.697 49.7701 261.697 48.0901ZM309.058 33.2501C311.228 33.3201 317.948 33.6001 320.608 34.0201C319.908 28.0001 319.208 21.0001 318.928 15.4001C318.928 15.2601 318.788 15.1201 318.578 15.1201C318.438 15.1201 318.298 15.2601 318.228 15.4001C316.828 20.7901 315.638 25.6901 315.147 27.7201C314.098 31.2901 313.258 32.2701 312.208 32.4101C311.718 32.4801 309.618 32.5501 309.058 32.5501C308.848 32.5501 308.708 32.6201 308.708 32.8301C308.708 33.0401 308.848 33.2501 309.058 33.2501ZM321.308 40.4601C313.188 39.6901 310.948 42.0001 309.198 45.7801C305.138 54.3201 300.168 59.2901 291.278 59.2901C281.828 59.2901 276.787 53.6901 276.787 47.1101C276.787 40.4601 282.038 35.9101 285.258 34.3701C289.038 32.6901 292.258 33.8801 290.928 37.7301C289.878 40.6001 290.508 44.5201 293.728 44.5201C302.198 44.5201 311.578 17.0101 310.388 10.9901C309.198 4.55011 303.038 4.34012 300.168 6.02012C297.858 7.28012 292.538 12.6001 297.298 18.4801C301.498 23.7301 299.888 30.9401 292.748 31.0101C287.778 31.0801 282.388 27.6501 281.688 19.4601C280.638 7.28012 291.068 0.420116 307.588 0.420116C307.588 0.420116 313.258 0.420116 319.628 0.420116C324.038 0.420116 327.468 2.17011 328.448 7.63012C329.358 12.2501 328.098 17.0801 330.968 30.7301C335.658 52.7101 341.748 53.2701 342.378 56.5601C342.798 59.0801 339.928 61.4601 334.818 61.4601C328.588 61.4601 322.568 58.0301 321.868 46.2001C321.798 44.8701 321.588 42.7701 321.308 40.4601ZM348.166 48.0901C348.166 46.3635 348.586 45.1501 349.426 44.4501C350.266 43.7501 351.269 43.4001 352.436 43.4001C353.649 43.4001 354.676 43.7501 355.516 44.4501C356.403 45.1501 356.846 46.3635 356.846 48.0901C356.846 49.7701 356.403 50.9835 355.516 51.7301C354.676 52.4768 353.649 52.8501 352.436 52.8501C351.269 52.8501 350.266 52.4768 349.426 51.7301C348.586 50.9835 348.166 49.7701 348.166 48.0901Z" fill="#F9ECBF"/>
</svg>
