<svg width="2148" height="76" viewBox="0 0 2148 76" fill="none" xmlns="http://www.w3.org/2000/svg">
<path d="M0 75.5195V-0.000473022H3.84V75.5195H0ZM19.2 75.5195V-0.000473022H26.88V75.5195H19.2ZM30.72 75.5195V-0.000473022H34.56V75.5195H30.72ZM42.25 75.5195V-0.000473022H49.93V75.5195H42.25ZM65.29 75.5195V-0.000473022H69.13V75.5195H65.29ZM72.97 75.5195V-0.000473022H76.81V75.5195H72.97ZM84.5 75.5195V-0.000473022H88.34V75.5195H84.5ZM92.18 75.5195V-0.000473022H99.86V75.5195H92.18ZM115.22 75.5195V-0.000473022H119.06V75.5195H115.22ZM126.75 75.5195V-0.000473022H130.59V75.5195H126.75ZM142.11 75.5195V-0.000473022H157.47V75.5195H142.11ZM161.31 75.5195V-0.000473022H165.15V75.5195H161.31ZM169 75.5195V-0.000473022H172.84V75.5195H169ZM180.52 75.5195V-0.000473022H184.36V75.5195H180.52ZM192.04 75.5195V-0.000473022H207.4V75.5195H192.04ZM211.25 75.5195V-0.000473022H226.61V75.5195H211.25ZM230.45 75.5195V-0.000473022H241.97V75.5195H230.45ZM245.81 75.5195V-0.000473022H249.65V75.5195H245.81ZM253.5 75.5195V-0.000473022H257.34V75.5195H253.5ZM265.02 75.5195V-0.000473022H268.86V75.5195H265.02ZM272.7 75.5195V-0.000473022H280.38V75.5195H272.7ZM295.75 75.5195V-0.000473022H299.59V75.5195H295.75ZM307.27 75.5195V-0.000473022H311.11V75.5195H307.27ZM314.95 75.5195V-0.000473022H322.63V75.5195H314.95ZM338 75.5195V-0.000473022H341.84V75.5195H338ZM353.36 75.5195V-0.000473022H368.72V75.5195H353.36ZM372.56 75.5195V-0.000473022H376.4V75.5195H372.56ZM380.25 75.5195V-0.000473022H387.93V75.5195H380.25ZM391.77 75.5195V-0.000473022H399.45V75.5195H391.77ZM407.13 75.5195V-0.000473022H414.81V75.5195H407.13ZM422.5 75.5195V-0.000473022H426.34V75.5195H422.5ZM430.18 75.5195V-0.000473022H445.54V75.5195H430.18ZM453.22 75.5195V-0.000473022H457.06V75.5195H453.22ZM464.75 75.5195V-0.000473022H468.59V75.5195H464.75ZM480.11 75.5195V-0.000473022H495.47V75.5195H480.11ZM499.31 75.5195V-0.000473022H503.15V75.5195H499.31ZM507 75.5195V-0.000473022H510.84V75.5195H507ZM518.52 75.5195V-0.000473022H522.36V75.5195H518.52ZM537.72 75.5195V-0.000473022H545.4V75.5195H537.72ZM549.25 75.5195V-0.000473022H553.09V75.5195H549.25ZM560.77 75.5195V-0.000473022H564.61V75.5195H560.77ZM572.29 75.5195V-0.000473022H587.65V75.5195H572.29ZM591.5 75.5195V-0.000473022H595.34V75.5195H591.5ZM599.18 75.5195V-0.000473022H606.86V75.5195H599.18ZM614.54 75.5195V-0.000473022H618.38V75.5195H614.54ZM633.75 75.5195V-0.000473022H641.43V75.5195H633.75ZM645.27 75.5195V-0.000473022H652.95V75.5195H645.27ZM660.63 75.5195V-0.000473022H668.31V75.5195H660.63ZM676 75.5195V-0.000473022H683.68V75.5195H676ZM699.04 75.5195V-0.000473022H702.88V75.5195H699.04ZM706.72 75.5195V-0.000473022H710.56V75.5195H706.72ZM718.25 75.5195V-0.000473022H722.09V75.5195H718.25ZM733.61 75.5195V-0.000473022H748.97V75.5195H733.61ZM752.81 75.5195V-0.000473022H756.65V75.5195H752.81ZM760.5 75.5195V-0.000473022H775.86V75.5195H760.5ZM779.7 75.5195V-0.000473022H783.54V75.5195H779.7ZM791.22 75.5195V-0.000473022H795.06V75.5195H791.22ZM802.75 75.5195V-0.000473022H806.59V75.5195H802.75ZM818.11 75.5195V-0.000473022H833.47V75.5195H818.11ZM837.31 75.5195V-0.000473022H841.15V75.5195H837.31ZM845 75.5195V-0.000473022H852.68V75.5195H845ZM856.52 75.5195V-0.000473022H864.2V75.5195H856.52ZM871.88 75.5195V-0.000473022H879.56V75.5195H871.88ZM887.25 75.5195V-0.000473022H891.09V75.5195H887.25ZM898.77 75.5195V-0.000473022H902.61V75.5195H898.77ZM910.29 75.5195V-0.000473022H925.65V75.5195H910.29ZM929.5 75.5195V-0.000473022H933.34V75.5195H929.5ZM937.18 75.5195V-0.000473022H944.86V75.5195H937.18ZM952.54 75.5195V-0.000473022H956.38V75.5195H952.54ZM971.75 75.5195V-0.000473022H975.59V75.5195H971.75ZM983.27 75.5195V-0.000473022H990.95V75.5195H983.27ZM994.79 75.5195V-0.000473022H998.63V75.5195H994.79ZM1014 75.5195V-0.000473022H1017.84V75.5195H1014ZM1025.52 75.5195V-0.000473022H1040.88V75.5195H1025.52ZM1048.56 75.5195V-0.000473022H1052.4V75.5195H1048.56ZM1056.25 75.5195V-0.000473022H1063.93V75.5195H1056.25ZM1071.61 75.5195V-0.000473022H1075.45V75.5195H1071.61ZM1079.29 75.5195V-0.000473022H1083.13V75.5195H1079.29ZM1098.5 75.5195V-0.000473022H1102.34V75.5195H1098.5ZM1110.02 75.5195V-0.000473022H1113.86V75.5195H1110.02ZM1117.7 75.5195V-0.000473022H1125.38V75.5195H1117.7ZM1140.75 75.5195V-0.000473022H1156.11V75.5195H1140.75ZM1159.95 75.5195V-0.000473022H1171.47V75.5195H1159.95ZM1175.31 75.5195V-0.000473022H1179.15V75.5195H1175.31ZM1183 75.5195V-0.000473022H1186.84V75.5195H1183ZM1190.68 75.5195V-0.000473022H1198.36V75.5195H1190.68ZM1206.04 75.5195V-0.000473022H1209.88V75.5195H1206.04ZM1225.25 75.5195V-0.000473022H1232.93V75.5195H1225.25ZM1248.29 75.5195V-0.000473022H1252.13V75.5195H1248.29ZM1255.97 75.5195V-0.000473022H1259.81V75.5195H1255.97ZM1267.5 75.5195V-0.000473022H1271.34V75.5195H1267.5ZM1279.02 75.5195V-0.000473022H1294.38V75.5195H1279.02ZM1298.22 75.5195V-0.000473022H1302.06V75.5195H1298.22ZM1309.75 75.5195V-0.000473022H1313.59V75.5195H1309.75ZM1325.11 75.5195V-0.000473022H1340.47V75.5195H1325.11ZM1344.31 75.5195V-0.000473022H1348.15V75.5195H1344.31ZM1352 75.5195V-0.000473022H1359.68V75.5195H1352ZM1363.52 75.5195V-0.000473022H1371.2V75.5195H1363.52ZM1378.88 75.5195V-0.000473022H1386.56V75.5195H1378.88ZM1394.25 75.5195V-0.000473022H1398.09V75.5195H1394.25ZM1413.45 75.5195V-0.000473022H1417.29V75.5195H1413.45ZM1424.97 75.5195V-0.000473022H1432.65V75.5195H1424.97ZM1436.5 75.5195V-0.000473022H1440.34V75.5195H1436.5ZM1448.02 75.5195V-0.000473022H1451.86V75.5195H1448.02ZM1455.7 75.5195V-0.000473022H1463.38V75.5195H1455.7ZM1478.75 75.5195V-0.000473022H1482.59V75.5195H1478.75ZM1486.43 75.5195V-0.000473022H1501.79V75.5195H1486.43ZM1509.47 75.5195V-0.000473022H1513.31V75.5195H1509.47ZM1521 75.5195V-0.000473022H1528.68V75.5195H1521ZM1532.52 75.5195V-0.000473022H1540.2V75.5195H1532.52ZM1547.88 75.5195V-0.000473022H1555.56V75.5195H1547.88ZM1563.25 75.5195V-0.000473022H1567.09V75.5195H1563.25ZM1570.93 75.5195V-0.000473022H1578.61V75.5195H1570.93ZM1593.97 75.5195V-0.000473022H1597.81V75.5195H1593.97ZM1605.5 75.5195V-0.000473022H1609.34V75.5195H1605.5ZM1617.02 75.5195V-0.000473022H1620.86V75.5195H1617.02ZM1624.7 75.5195V-0.000473022H1632.38V75.5195H1624.7ZM1647.75 75.5195V-0.000473022H1651.59V75.5195H1647.75ZM1659.27 75.5195V-0.000473022H1674.63V75.5195H1659.27ZM1678.47 75.5195V-0.000473022H1682.31V75.5195H1678.47ZM1690 75.5195V-0.000473022H1693.84V75.5195H1690ZM1697.68 75.5195V-0.000473022H1705.36V75.5195H1697.68ZM1713.04 75.5195V-0.000473022H1716.88V75.5195H1713.04ZM1732.25 75.5195V-0.000473022H1736.09V75.5195H1732.25ZM1751.45 75.5195V-0.000473022H1755.29V75.5195H1751.45ZM1759.13 75.5195V-0.000473022H1766.81V75.5195H1759.13ZM1774.5 75.5195V-0.000473022H1778.34V75.5195H1774.5ZM1782.18 75.5195V-0.000473022H1797.54V75.5195H1782.18ZM1805.22 75.5195V-0.000473022H1809.06V75.5195H1805.22ZM1816.75 75.5195V-0.000473022H1824.43V75.5195H1816.75ZM1828.27 75.5195V-0.000473022H1835.95V75.5195H1828.27ZM1843.63 75.5195V-0.000473022H1851.31V75.5195H1843.63ZM1859 75.5195V-0.000473022H1862.84V75.5195H1859ZM1866.68 75.5195V-0.000473022H1874.36V75.5195H1866.68ZM1882.04 75.5195V-0.000473022H1885.88V75.5195H1882.04ZM1901.25 75.5195V-0.000473022H1916.61V75.5195H1901.25ZM1920.45 75.5195V-0.000473022H1931.97V75.5195H1920.45ZM1935.81 75.5195V-0.000473022H1939.65V75.5195H1935.81ZM1943.5 75.5195V-0.000473022H1951.18V75.5195H1943.5ZM1955.02 75.5195V-0.000473022H1962.7V75.5195H1955.02ZM1970.38 75.5195V-0.000473022H1978.06V75.5195H1970.38ZM1985.75 75.5195V-0.000473022H1989.59V75.5195H1985.75ZM1997.27 75.5195V-0.000473022H2008.79V75.5195H1997.27ZM2016.47 75.5195V-0.000473022H2024.15V75.5195H2016.47ZM2028 75.5195V-0.000473022H2031.84V75.5195H2028ZM2039.52 75.5195V-0.000473022H2051.04V75.5195H2039.52ZM2054.88 75.5195V-0.000473022H2062.56V75.5195H2054.88ZM2070.25 75.5195V-0.000473022H2077.93V75.5195H2070.25ZM2085.61 75.5195V-0.000473022H2097.13V75.5195H2085.61ZM2104.81 75.5195V-0.000473022H2108.65V75.5195H2104.81ZM2112.5 75.5195V-0.000473022H2120.18V75.5195H2112.5ZM2127.86 75.5195V-0.000473022H2139.38V75.5195H2127.86ZM2143.22 75.5195V-0.000473022H2147.06V75.5195H2143.22Z" fill="black"/>
</svg>
