<svg width="278" height="222" viewBox="0 0 278 222" fill="none" xmlns="http://www.w3.org/2000/svg">
<path d="M138.758 4.55371L160.195 37.1914L197.63 15.0545L198.823 51.7287L244.842 44.477L225.555 77.9239L271.043 86.9938L235.095 110.589L271.043 134.184L225.555 143.254L244.842 176.701L198.823 169.449L197.63 206.123L160.195 183.986L138.758 216.624L117.321 183.986L79.886 206.123L78.6927 169.449L32.6742 176.701L51.9611 143.254L6.47363 134.184L42.4207 110.589L6.47363 86.9938L51.9611 77.9239L32.6742 44.477L78.6927 51.7287L79.886 15.0545L117.321 37.1914L138.758 4.55371Z" fill="#DEC174"/>
<path d="M70.5147 125.286C70.5147 126.022 70.3547 126.71 70.0347 127.35C67.1547 127.126 65.1227 127.014 63.9387 127.014L59.3787 127.35C59.3787 126.614 59.5387 125.926 59.8587 125.286C61.1067 124.934 62.1787 124.374 63.0747 123.606C63.6507 119.382 64.0507 115.926 64.2747 113.238C64.4987 110.518 64.7227 107.574 64.9467 104.406C65.2027 101.238 65.4107 98.7582 65.5707 96.9662L61.5867 96.1022C61.5867 95.3662 61.7467 94.6782 62.0667 94.0382C64.1147 94.2622 65.7787 94.3742 67.0587 94.3742H69.6507C72.4347 100.038 75.2827 105.43 78.1947 110.55C81.1067 115.67 82.7387 118.55 83.0907 119.19C84.0507 110.038 84.6587 102.63 84.9147 96.9662L80.8347 96.1022C80.8347 95.3662 80.9947 94.6782 81.3147 94.0382C83.4587 94.2622 85.0747 94.3742 86.1627 94.3742C87.8907 94.3742 89.6347 94.2782 91.3947 94.0862L92.1147 94.0382C92.1147 94.7742 91.9547 95.4622 91.6347 96.1022C90.1627 96.3582 88.9787 96.8382 88.0827 97.5422C86.9307 106.982 86.1627 116.806 85.7787 127.014L85.1067 127.494L82.2747 127.014C76.2907 115.622 71.6667 107.03 68.4027 101.238C67.9227 105.11 67.3147 112.854 66.5787 124.47L70.5147 125.286Z" fill="black"/>
<path d="M97.1967 115.446C97.1967 110.966 98.1887 106.902 100.173 103.254C102.349 99.2542 105.341 96.4862 109.149 94.9502C111.229 94.0862 113.485 93.6542 115.917 93.6542C119.309 93.6542 121.981 94.8382 123.933 97.2062C125.917 99.5422 126.909 102.518 126.909 106.134C126.909 111.702 125.389 116.646 122.349 120.966C120.877 123.078 118.909 124.774 116.445 126.054C114.013 127.334 111.181 127.974 107.949 127.974C104.717 127.974 102.109 126.79 100.125 124.422C98.1727 122.054 97.1967 119.062 97.1967 115.446ZM109.677 97.0142C106.989 98.4542 104.909 100.662 103.437 103.638C101.965 106.582 101.229 109.558 101.229 112.566C101.229 115.542 101.789 118.086 102.909 120.198C104.061 122.278 105.725 123.59 107.901 124.134H114.573C117.261 122.694 119.309 120.55 120.717 117.702C122.157 114.854 122.877 111.942 122.877 108.966C122.877 105.99 122.317 103.43 121.197 101.286C120.109 99.1422 118.509 97.7182 116.397 97.0142H109.677Z" fill="black"/>
<path d="M156.55 116.55C155.366 119.686 153.542 122.294 151.078 124.374C148.646 126.454 145.75 127.494 142.39 127.494C139.03 127.494 136.982 126.902 136.246 125.718C137.11 115.03 137.59 105.702 137.686 97.7342H133.99C133.99 96.9982 134.15 96.3102 134.47 95.6702C136.614 95.4142 138.55 94.9022 140.278 94.1342C140.726 94.1342 141.126 94.3422 141.478 94.7582C141.83 95.1422 142.006 95.6542 142.006 96.2942C141.046 109.318 140.566 118.598 140.566 124.134H146.806C148.054 123.718 149.43 122.598 150.934 120.774C153.334 117.862 154.886 114.102 155.59 109.494C155.878 107.606 156.022 106.07 156.022 104.886C156.022 101.174 155.558 98.3102 154.63 96.2942C154.726 96.1342 154.886 95.9422 155.11 95.7182C155.366 95.4622 155.974 95.1422 156.934 94.7582C157.894 94.3422 158.966 94.1342 160.15 94.1342C160.15 97.8782 159.846 101.766 159.238 105.798C158.63 109.83 157.734 113.414 156.55 116.55Z" fill="black"/>
<path d="M167.453 115.446C167.453 110.966 168.445 106.902 170.429 103.254C172.605 99.2542 175.597 96.4862 179.405 94.9502C181.485 94.0862 183.741 93.6542 186.173 93.6542C189.565 93.6542 192.237 94.8382 194.189 97.2062C196.173 99.5422 197.165 102.518 197.165 106.134C197.165 111.702 195.645 116.646 192.605 120.966C191.133 123.078 189.165 124.774 186.701 126.054C184.269 127.334 181.437 127.974 178.205 127.974C174.973 127.974 172.365 126.79 170.381 124.422C168.429 122.054 167.453 119.062 167.453 115.446ZM179.933 97.0142C177.245 98.4542 175.165 100.662 173.693 103.638C172.221 106.582 171.485 109.558 171.485 112.566C171.485 115.542 172.045 118.086 173.165 120.198C174.317 122.278 175.981 123.59 178.157 124.134H184.829C187.517 122.694 189.565 120.55 190.973 117.702C192.413 114.854 193.133 111.942 193.133 108.966C193.133 105.99 192.573 103.43 191.453 101.286C190.365 99.1422 188.765 97.7182 186.653 97.0142H179.933Z" fill="black"/>
<path d="M206.07 124.566C206.23 124.086 206.614 123.702 207.222 123.414C207.83 123.094 208.454 122.934 209.094 122.934C209.734 122.934 210.23 123.078 210.582 123.366C210.966 123.654 211.158 123.974 211.158 124.326L210.918 126.054C210.566 127.014 209.542 127.494 207.846 127.494C207.206 127.494 206.71 127.35 206.358 127.062C206.038 126.774 205.878 126.438 205.878 126.054L206.07 124.566ZM208.806 119.046L207.702 118.806C207.958 117.238 208.246 113.942 208.566 108.918C208.886 103.894 209.046 99.0462 209.046 94.3742L212.79 93.6062L213.462 94.3742C212.822 98.1182 212.15 102.678 211.446 108.054C210.774 113.398 210.438 116.982 210.438 118.806C210.022 118.966 209.478 119.046 208.806 119.046Z" fill="black"/>
<path d="M138.758 4.55371L160.195 37.1914L197.63 15.0545L198.823 51.7287L244.842 44.477L225.555 77.9239L271.043 86.9938L235.095 110.589L271.043 134.184L225.555 143.254L244.842 176.701L198.823 169.449L197.63 206.123L160.195 183.986L138.758 216.624L117.321 183.986L79.886 206.123L78.6927 169.449L32.6742 176.701L51.9611 143.254L6.47363 134.184L42.4207 110.589L6.47363 86.9938L51.9611 77.9239L32.6742 44.477L78.6927 51.7287L79.886 15.0545L117.321 37.1914L138.758 4.55371Z" stroke="black" stroke-width="5"/>
<path d="M70.5147 125.286C70.5147 126.022 70.3547 126.71 70.0347 127.35C67.1547 127.126 65.1227 127.014 63.9387 127.014L59.3787 127.35C59.3787 126.614 59.5387 125.926 59.8587 125.286C61.1067 124.934 62.1787 124.374 63.0747 123.606C63.6507 119.382 64.0507 115.926 64.2747 113.238C64.4987 110.518 64.7227 107.574 64.9467 104.406C65.2027 101.238 65.4107 98.7582 65.5707 96.9662L61.5867 96.1022C61.5867 95.3662 61.7467 94.6782 62.0667 94.0382C64.1147 94.2622 65.7787 94.3742 67.0587 94.3742H69.6507C72.4347 100.038 75.2827 105.43 78.1947 110.55C81.1067 115.67 82.7387 118.55 83.0907 119.19C84.0507 110.038 84.6587 102.63 84.9147 96.9662L80.8347 96.1022C80.8347 95.3662 80.9947 94.6782 81.3147 94.0382C83.4587 94.2622 85.0747 94.3742 86.1627 94.3742C87.8907 94.3742 89.6347 94.2782 91.3947 94.0862L92.1147 94.0382C92.1147 94.7742 91.9547 95.4622 91.6347 96.1022C90.1627 96.3582 88.9787 96.8382 88.0827 97.5422C86.9307 106.982 86.1627 116.806 85.7787 127.014L85.1067 127.494L82.2747 127.014C76.2907 115.622 71.6667 107.03 68.4027 101.238C67.9227 105.11 67.3147 112.854 66.5787 124.47L70.5147 125.286Z" stroke="black" stroke-width="5"/>
<path d="M97.1967 115.446C97.1967 110.966 98.1887 106.902 100.173 103.254C102.349 99.2542 105.341 96.4862 109.149 94.9502C111.229 94.0862 113.485 93.6542 115.917 93.6542C119.309 93.6542 121.981 94.8382 123.933 97.2062C125.917 99.5422 126.909 102.518 126.909 106.134C126.909 111.702 125.389 116.646 122.349 120.966C120.877 123.078 118.909 124.774 116.445 126.054C114.013 127.334 111.181 127.974 107.949 127.974C104.717 127.974 102.109 126.79 100.125 124.422C98.1727 122.054 97.1967 119.062 97.1967 115.446ZM109.677 97.0142C106.989 98.4542 104.909 100.662 103.437 103.638C101.965 106.582 101.229 109.558 101.229 112.566C101.229 115.542 101.789 118.086 102.909 120.198C104.061 122.278 105.725 123.59 107.901 124.134H114.573C117.261 122.694 119.309 120.55 120.717 117.702C122.157 114.854 122.877 111.942 122.877 108.966C122.877 105.99 122.317 103.43 121.197 101.286C120.109 99.1422 118.509 97.7182 116.397 97.0142H109.677Z" stroke="black" stroke-width="5"/>
<path d="M156.55 116.55C155.366 119.686 153.542 122.294 151.078 124.374C148.646 126.454 145.75 127.494 142.39 127.494C139.03 127.494 136.982 126.902 136.246 125.718C137.11 115.03 137.59 105.702 137.686 97.7342H133.99C133.99 96.9982 134.15 96.3102 134.47 95.6702C136.614 95.4142 138.55 94.9022 140.278 94.1342C140.726 94.1342 141.126 94.3422 141.478 94.7582C141.83 95.1422 142.006 95.6542 142.006 96.2942C141.046 109.318 140.566 118.598 140.566 124.134H146.806C148.054 123.718 149.43 122.598 150.934 120.774C153.334 117.862 154.886 114.102 155.59 109.494C155.878 107.606 156.022 106.07 156.022 104.886C156.022 101.174 155.558 98.3102 154.63 96.2942C154.726 96.1342 154.886 95.9422 155.11 95.7182C155.366 95.4622 155.974 95.1422 156.934 94.7582C157.894 94.3422 158.966 94.1342 160.15 94.1342C160.15 97.8782 159.846 101.766 159.238 105.798C158.63 109.83 157.734 113.414 156.55 116.55Z" stroke="black" stroke-width="5"/>
<path d="M167.453 115.446C167.453 110.966 168.445 106.902 170.429 103.254C172.605 99.2542 175.597 96.4862 179.405 94.9502C181.485 94.0862 183.741 93.6542 186.173 93.6542C189.565 93.6542 192.237 94.8382 194.189 97.2062C196.173 99.5422 197.165 102.518 197.165 106.134C197.165 111.702 195.645 116.646 192.605 120.966C191.133 123.078 189.165 124.774 186.701 126.054C184.269 127.334 181.437 127.974 178.205 127.974C174.973 127.974 172.365 126.79 170.381 124.422C168.429 122.054 167.453 119.062 167.453 115.446ZM179.933 97.0142C177.245 98.4542 175.165 100.662 173.693 103.638C172.221 106.582 171.485 109.558 171.485 112.566C171.485 115.542 172.045 118.086 173.165 120.198C174.317 122.278 175.981 123.59 178.157 124.134H184.829C187.517 122.694 189.565 120.55 190.973 117.702C192.413 114.854 193.133 111.942 193.133 108.966C193.133 105.99 192.573 103.43 191.453 101.286C190.365 99.1422 188.765 97.7182 186.653 97.0142H179.933Z" stroke="black" stroke-width="5"/>
<path d="M206.07 124.566C206.23 124.086 206.614 123.702 207.222 123.414C207.83 123.094 208.454 122.934 209.094 122.934C209.734 122.934 210.23 123.078 210.582 123.366C210.966 123.654 211.158 123.974 211.158 124.326L210.918 126.054C210.566 127.014 209.542 127.494 207.846 127.494C207.206 127.494 206.71 127.35 206.358 127.062C206.038 126.774 205.878 126.438 205.878 126.054L206.07 124.566ZM208.806 119.046L207.702 118.806C207.958 117.238 208.246 113.942 208.566 108.918C208.886 103.894 209.046 99.0462 209.046 94.3742L212.79 93.6062L213.462 94.3742C212.822 98.1182 212.15 102.678 211.446 108.054C210.774 113.398 210.438 116.982 210.438 118.806C210.022 118.966 209.478 119.046 208.806 119.046Z" stroke="black" stroke-width="5"/>
</svg>
