<svg width="618" height="472" viewBox="0 0 618 472" fill="none" xmlns="http://www.w3.org/2000/svg">
<path fill-rule="evenodd" clip-rule="evenodd" d="M93.1431 -2.98628C93.1431 0.939448 83.6054 10.333 75.2581 14.6304C71.6416 16.4907 63.1819 18.1375 56.458 18.2891C49.7341 18.4386 44.2296 19.2844 44.2278 20.1644C44.2242 21.0444 45.0377 21.7663 46.0342 21.7663C47.0308 21.7663 47.8461 24.4618 47.8461 27.7553C47.8461 38.3856 57.0052 56.3845 70.3587 71.9892C90.3691 95.377 120.158 111.473 143.43 111.473C166.323 111.473 198.232 78.3093 198.232 54.5157V48.0311L177.847 46.8479C155.019 45.5236 139.366 40.483 125.326 29.9382C115.668 22.6848 98.5788 1.65924 98.5788 -2.9692C98.5788 -4.63518 97.3558 -6 95.861 -6C94.3662 -6 93.1431 -4.64372 93.1431 -2.98628ZM90.2568 11.3048C84.5204 18.7782 76.7275 22.2854 62.8032 23.6609L49.5511 24.9701L54.5791 36.4547C61.6074 52.5058 83.7721 76.545 101.655 87.5127C116.727 96.7568 139.011 105.065 148.728 105.065C154.684 105.065 168.008 93.6213 181.38 77.0192C186.591 70.5518 192.797 56.9783 192.797 52.0509C192.797 51.0107 188.517 51.5254 183.284 53.1957C171.152 57.0702 151.337 55.4362 137.748 49.443C124.077 43.4134 107.51 28.6246 101.121 16.7492C98.2273 11.371 95.3754 6.93698 94.7829 6.89426C94.1904 6.8494 92.1539 8.83577 90.2568 11.3048ZM260.307 26.5379C261.662 30.7028 252.922 48.4946 244.551 58.6058C235.624 69.392 228.395 73.4822 215.445 75.0734L204.574 76.4083L211.952 84.9497C220.107 94.3924 232.567 100.178 249.142 102.22C276.085 105.539 298.77 82.7775 298.784 52.4054C298.788 45.1776 299.509 39.7845 300.386 40.4232C301.263 41.0618 301.607 40.2673 301.152 38.6589C299.534 32.9369 283.311 25.1666 271.061 24.2461C261.179 23.5049 259.439 23.8766 260.307 26.5379ZM259.811 40.4488C251.936 62.8434 237.468 77.0192 220.25 79.2106L210.009 80.5135L218.375 85.191C229.955 91.6649 254.821 97.3292 264.038 95.5927C273.423 93.8242 282.003 86.1928 287.868 74.3964C292.713 64.6482 296.672 45.31 294.921 39.9341C293.934 36.9011 282.325 32.136 269.638 29.5559C264.281 28.4666 263.86 28.9343 259.811 40.4488ZM382.138 57.3436C371.6 59.1633 354.222 66.94 347.091 73.0315C340.709 78.478 324.922 101.652 330.22 97.7927C331.371 96.9554 332.726 97.7834 332.726 99.1866C333.14 99.5532 333.915 98.9674 335.873 96.0306C341.199 88.051 348.79 85.2209 362.184 86.2269C374.564 87.156 376.458 88.2753 378.384 95.8042C379.556 100.39 379.494 100.401 370.886 97.2523C360.372 93.4056 345.524 94.6508 337.805 100.025C334.302 102.465 333.14 99.5532 332.726 99.1866C332.575 100.219 334.487 105.912 338.595 103.888C342.05 102.186 350.497 100.794 357.364 100.794C367.483 100.794 371.787 101.945 380.071 106.87C385.693 110.213 390.291 112.191 390.291 111.264C390.291 110.339 388.581 106.163 386.488 101.983C384.397 97.8055 383.435 94.386 384.35 94.386C387.767 94.386 400.942 109.602 401.494 114.188C402.351 121.296 405.374 120.014 412.925 109.337C420.981 97.9486 427.736 92.2843 433.286 92.265C437 92.2522 437.152 91.7802 435.184 86.3765C430.865 74.5053 425.735 68.0934 416.729 63.3026C407.334 58.3047 391.938 55.6541 382.138 57.3436ZM374.89 69.5757C365.664 72.4912 355.862 76.7202 355.869 77.7796C355.871 78.1021 358.522 78.5698 361.758 78.8155C374.769 79.8086 383.269 84.3239 393.408 95.6269L403.534 106.915L411.378 97.3997C415.868 91.9553 421.574 87.3312 424.717 86.59C429.267 85.5178 429.836 84.7617 428.031 82.1987C419.7 70.366 392.692 63.9519 374.89 69.5757ZM37.9152 96.6671C27.7125 98.6769 9.05921 106.285 3.13618 110.854C-1.48774 114.418 -1.03839 122.597 4.74875 140.307C17.8414 180.368 20.1715 182.331 33.5305 164.53L41.8633 153.428L45.0232 163.956C46.7608 169.744 50.6545 182.365 53.6749 192C56.6972 201.635 58.8624 209.896 58.4891 210.36C58.1177 210.823 58.7591 212.551 59.9187 214.2C61.0783 215.849 68.6646 234.019 76.78 254.576C84.8936 275.134 93.7048 296.279 96.3592 301.566C99.0136 306.852 100.985 312.307 100.74 313.687C100.496 315.066 101.007 316.713 101.876 317.348C102.746 317.982 118.154 317.467 136.117 316.205L168.776 313.909L184.302 322.852C192.842 327.768 200.868 333.268 202.14 335.075C203.784 337.41 204.32 345.528 204.001 363.213C203.753 376.883 204.262 393.047 205.13 399.132C206.648 409.758 206.505 410.375 201.581 414.668C191.059 423.838 185.246 445.25 189.794 458.08C192.036 464.404 193.92 466.222 200.359 468.281C209.634 471.246 235.356 469.772 258.024 464.977C280.343 460.254 336.596 458.424 356.772 461.76C365.74 463.245 375.119 464.334 377.614 464.18C380.107 464.028 388.26 465.445 395.733 467.328C421.222 473.755 425.317 473.651 432.209 466.395C438.005 460.293 438.306 459.255 438.306 445.38C438.306 437.354 437.683 428.784 436.922 426.337C435.616 422.144 436.157 421.886 446.251 421.886C460.514 421.886 472.205 414.972 490.851 395.505C528.768 355.921 552.37 347.927 576.218 366.592C593.211 379.892 606.916 378.594 615.006 362.912C619.226 354.73 618.929 331.867 614.468 321.758C607.694 306.401 591.908 297.608 567.81 295.767C542.326 293.821 533.604 298.029 496.286 330.272C487.318 338.023 473.107 348.429 464.709 353.399C449.817 362.214 449.009 362.434 432.095 362.254C419.849 362.126 411.452 360.789 403.524 357.709C392.005 353.232 382.094 343.576 337.961 293.836L324.468 278.631L341.753 279.694C382.134 282.185 391.946 268.872 376.246 232.882L369.449 217.299L383.647 201.308C417.778 162.868 412.099 155.952 328.479 134.12C308.164 128.816 281.76 122.951 269.801 121.084C257.843 119.22 240.313 116.11 230.846 114.173C205.413 108.968 176.482 109.549 163.426 115.525C155.564 119.122 152.234 119.724 149.552 118.032C147.612 116.808 139.221 114.397 130.908 112.675C122.593 110.954 110.084 107.154 103.108 104.232C81.2409 95.0716 59.0707 92.4979 37.9152 96.6671ZM36.9748 105.206C28.0858 107.043 4.36101 115.322 4.36101 116.586C4.36101 116.86 6.28885 121.826 8.64429 127.627C11.0015 133.425 15.2178 145.38 18.0171 154.19L23.1049 170.209L35.7319 154.784C50.7778 136.405 72.2576 122.21 94.3426 116.046L108.544 112.084L94.955 108.384C78.5448 103.918 50.6147 102.387 36.9748 105.206ZM188.504 129.26C189.624 138.891 189.522 139.135 180.041 149.41L170.443 159.814L172.478 169.261C174.337 177.892 174.107 179.541 169.82 188.343C167.24 193.64 163.122 201.158 160.666 205.05L156.204 212.122L163.739 220.573C174.35 232.472 193.467 243.162 214.715 249.083C224.716 251.868 233.29 254.611 233.769 255.174C234.247 255.738 231.808 256.825 228.349 257.59C219.812 259.478 200.776 255.64 185.978 249.047C162.397 238.54 149.311 236.579 149.311 243.553C149.311 245.715 147.273 248.579 144.782 249.916C141.326 251.772 140.252 253.968 140.252 259.168C140.252 262.919 138.991 267.629 137.451 269.636C134.883 272.979 135.24 273.836 141.716 279.882C153.674 291.046 175.198 305.837 179.486 305.837C181.726 305.837 184.208 307.138 185.005 308.727C185.803 310.318 192.57 314.009 200.044 316.931L213.633 322.243V353.019C213.633 369.948 214.329 391.108 215.181 400.046L216.728 416.294L211.232 420.91C203.932 427.035 198.232 438.268 198.232 446.523C198.232 453.078 200.522 455.348 202.784 451.036C203.791 449.112 220.475 438.261 222.424 438.261C222.841 438.261 220.422 441.813 217.049 446.153C206.666 459.515 207.813 460.474 232.205 458.802C254.868 457.249 257.602 456.959 281.579 453.546C333.243 446.19 368.877 448.789 411.581 463.031C414.915 464.142 415.658 463.542 415.658 459.729C415.658 457.166 414.748 453.063 413.636 450.615C411.646 446.23 411.701 446.235 417.205 450.854C420.28 453.435 423.3 456.51 423.918 457.687C425.799 461.275 429.957 455.549 431.216 447.64C432.7 438.306 427.265 425.136 410.681 397.883C397.082 375.537 386.003 361.784 345.27 316.688C329.976 299.754 316.595 283.658 315.537 280.918C314.477 278.178 312.129 275.935 310.315 275.935C308.503 275.935 301.667 273.863 295.124 271.332C277.23 264.408 282.447 262.018 308.172 265.356C340.543 269.557 364.88 269.316 370.81 264.737C375.51 261.106 375.572 260.781 373.26 251.729C369.964 238.82 358.506 219.89 343.342 202.305C330.563 187.484 326.861 179.099 334.083 181.325C336.055 181.933 343.434 188.14 350.484 195.118L363.304 207.805L377.703 191.032C385.624 181.809 392.103 172.837 392.103 171.094C392.103 165.444 382.095 160.726 351.939 152.161C282.129 132.334 247.262 125.021 203.22 120.969L187.372 119.512L188.504 129.26ZM94.955 126.405C78.7876 131.527 62.1926 140.813 52.8433 149.968C46.1846 156.489 46.114 156.719 48.8137 162.875C50.3266 166.322 52.0062 169.141 52.5498 169.141C53.0915 169.141 56.9436 166.388 61.1091 163.022C79.9671 147.783 101.663 138.618 128.114 134.718C156.648 130.512 155.584 124.472 126.049 122.981C112.409 122.293 105.544 123.049 94.955 126.405ZM196.63 130.873C196.36 137.947 197.866 139.622 202.093 136.954C206.541 134.147 206.469 130.038 202.003 131.708C199.589 132.612 198.268 131.838 197.683 129.184C197.107 126.565 196.774 127.099 196.63 130.873ZM229.034 131.764C229.034 133.71 227.351 134.968 224.749 134.968C222.392 134.968 218.315 136.96 215.69 139.395C205.646 148.708 212.43 169.141 225.564 169.141C231.12 169.141 231.285 169.398 230.301 176.549C229.429 182.875 230.054 184.725 234.584 189.217C241.382 195.959 246.022 197.634 253.404 196C260.896 194.345 265.734 188.136 265.984 179.855C266.127 175.081 267.051 173.422 269.564 173.417C272.646 173.413 272.55 172.794 268.473 166.472C266.011 162.655 262.619 156.375 260.934 152.518C257.756 145.247 254.4 145.03 254.4 152.095C254.4 155.28 253.232 156.057 248.968 155.707C244.656 155.35 243.536 154.267 243.533 150.453C243.531 147.811 244.625 145.647 245.966 145.647C247.307 145.647 249.686 143.966 251.255 141.909C253.92 138.415 253.634 138.15 246.852 137.84C242.283 137.631 238.103 135.852 235.559 133.035C230.777 127.738 229.034 127.4 229.034 131.764ZM123.039 139.472C101.157 143.193 72.9697 156.151 58.7681 169.022C54.3381 173.035 54.3218 173.165 57.3784 180.722C60.3445 188.052 63.1746 190.387 64.4556 186.562C64.7872 185.568 70.2084 180.637 76.501 175.598C88.6406 165.882 109.497 155.38 120.774 153.304C124.512 152.616 130.352 151.546 133.751 150.925C138.58 150.043 140.344 148.404 141.81 143.449C143.597 137.407 143.454 137.116 138.799 137.364C136.11 137.507 129.018 138.455 123.039 139.472ZM229.034 146.715C229.034 149.652 227.403 153.977 225.41 156.326L221.787 160.598H227.847C233.669 160.598 239.905 155.433 239.905 150.615C239.905 147.759 233.861 141.375 231.156 141.375C229.989 141.375 229.034 143.778 229.034 146.715ZM123.039 156.373C99.9268 161.841 59.5926 187.8 63.2797 194.834C64.1349 196.464 66.1171 195.502 69.335 191.897C79.7479 180.225 103.418 170.244 126.775 167.672C138.143 166.42 138.44 166.232 138.44 160.288C138.44 153.556 136.757 153.127 123.039 156.373ZM249.695 164.537C251.27 167.535 247.111 182.111 244.323 183.371C239.355 185.62 241.752 188.364 248.684 188.364C255.935 188.364 261.648 183.475 261.648 177.271C261.648 172.661 254.679 162.734 251.443 162.734C249.963 162.734 249.177 163.546 249.695 164.537ZM120.803 172.328C95.8682 177.659 72.254 189.592 67.0883 199.475C63.5533 206.235 67.5268 205.96 82.627 198.403C97.7272 190.844 108.656 187.619 128.022 185.007C138.418 183.603 138.44 183.584 138.44 176.371C138.44 168.234 139.176 168.402 120.803 172.328ZM113.98 192.719C102.784 194.96 76.2872 204.96 72.1906 208.491C69.3676 210.926 69.3658 211.562 72.1706 217.957C75.3396 225.18 75.6204 225.161 84.9897 217.09C93.1486 210.058 114.226 200.9 128.064 198.375C135.242 197.064 140.071 195.186 139.699 193.851C138.889 190.949 125.728 190.37 113.98 192.719ZM285.202 198.636C285.202 201.936 286.275 206.365 287.587 208.48C290.598 213.333 296.755 212.102 297.509 206.496C297.944 203.266 297.67 202.954 296.374 205.191C293.994 209.296 291.307 206.718 290.011 199.089C288.632 190.959 285.202 190.635 285.202 198.636ZM131.193 200.507C120.303 202.626 96.0621 212.886 87.4122 219.04C77.5592 226.048 75.9991 228.35 78.2567 232.541C79.2351 234.356 83.1742 232.996 92.268 227.703C105.701 219.883 125.148 214.093 138.181 214.031C144.983 213.999 145.894 213.478 144.771 210.257C144.052 208.2 143.055 204.838 142.553 202.781C141.653 199.093 140.082 198.777 131.193 200.507ZM117.841 222.705C109.999 224.975 98.3867 229.758 92.0361 233.331L80.4872 239.828L84.9969 250.32L89.5049 260.811L100.331 254.775C106.285 251.456 117.565 247.026 125.4 244.929C138.496 241.426 139.582 240.73 138.866 236.31C137.893 230.309 142.714 228.121 152.402 230.172L159.277 231.626L153.955 224.948C149.445 219.285 147.373 218.29 140.366 218.42C135.818 218.506 125.683 220.434 117.841 222.705ZM267.084 226.402C267.084 232.81 271.427 241.624 273.423 239.271C274.085 238.493 273.744 235.913 272.666 233.54C271.588 231.167 270.707 227.241 270.707 224.815C270.707 222.389 269.892 220.402 268.895 220.402C267.899 220.402 267.084 223.102 267.084 226.402ZM119.415 251.168C94.9206 260.717 91.0939 263.128 92.4166 268.182C94.3843 275.696 100.371 288.759 101.786 288.626C102.514 288.56 108.816 286.751 115.792 284.609C128.375 280.745 128.469 280.662 127.875 273.944C127.545 270.222 128.062 266.022 129.02 264.615C130.231 262.834 133.298 244.939 132.187 246.129C132.138 246.18 126.391 248.449 119.415 251.168ZM113.074 289.57C102.55 292.185 102.418 292.394 104.625 302.937C105.641 307.8 106.874 309.387 109.099 308.706C110.787 308.189 121.894 307.091 133.782 306.267L155.394 304.769L145.184 295.692C134.026 285.773 130.816 285.162 113.074 289.57ZM539.349 312.17C535.131 314.428 520.455 325.558 506.736 336.901C493.016 348.247 478.57 359.473 474.631 361.848C454.356 374.081 433.827 377.284 414.187 371.278C405.201 368.529 404.806 368.576 406.997 372.13C408.273 374.2 413.681 383.438 419.015 392.658C427.777 407.804 429.424 409.577 436.034 410.969C451.633 414.256 463.56 407.834 486.321 383.888C510.303 358.657 522.1 350.708 541.696 346.564C556.287 343.478 569.669 346.549 581.434 355.684C594.099 365.52 595.942 366.028 601.216 361.135C611.252 351.829 611.469 329.83 601.631 318.934C591.816 308.065 554.58 304.022 539.349 312.17Z" fill="black"/>
<path fill-rule="evenodd" clip-rule="evenodd" d="M188.504 129.26C189.624 138.891 189.522 139.135 180.041 149.41L170.443 159.814L172.478 169.261C174.337 177.892 174.107 179.541 169.82 188.343C167.24 193.64 163.122 201.158 160.666 205.05L156.204 212.122L163.739 220.573C174.35 232.472 193.467 243.162 214.715 249.083C224.716 251.868 233.29 254.611 233.769 255.174C234.247 255.738 231.808 256.825 228.349 257.59C219.812 259.478 200.776 255.64 185.978 249.047C162.397 238.54 149.311 236.579 149.311 243.553C149.311 245.715 147.273 248.579 144.782 249.916C141.326 251.772 140.252 253.968 140.252 259.168C140.252 262.919 138.991 267.629 137.451 269.636C134.883 272.979 135.24 273.836 141.716 279.882C153.674 291.046 175.198 305.837 179.486 305.837C181.726 305.837 184.208 307.138 185.005 308.727C185.803 310.318 192.57 314.009 200.044 316.931L213.633 322.243V353.019C213.633 369.948 214.329 391.108 215.181 400.046L216.728 416.294L211.232 420.91C203.932 427.035 198.232 438.268 198.232 446.523C198.232 453.078 200.522 455.348 202.784 451.036C203.791 449.112 220.475 438.261 222.424 438.261C222.841 438.261 220.422 441.813 217.049 446.153C206.666 459.515 207.813 460.474 232.205 458.802C254.868 457.249 257.602 456.959 281.579 453.546C333.243 446.19 368.877 448.789 411.581 463.031C414.915 464.142 415.658 463.542 415.658 459.729C415.658 457.166 414.748 453.063 413.636 450.615C411.646 446.23 411.701 446.235 417.205 450.854C420.28 453.435 423.3 456.51 423.918 457.687C425.799 461.275 429.957 455.549 431.216 447.64C432.7 438.306 427.265 425.136 410.681 397.883C397.082 375.537 386.003 361.784 345.27 316.688C329.976 299.754 316.595 283.658 315.537 280.918C314.477 278.178 312.129 275.935 310.315 275.935C308.503 275.935 301.667 273.863 295.124 271.332C277.23 264.408 282.447 262.018 308.172 265.356C340.543 269.557 364.88 269.316 370.81 264.737C375.51 261.106 375.572 260.781 373.26 251.729C369.964 238.82 358.506 219.89 343.342 202.305C330.563 187.484 326.861 179.099 334.083 181.325C336.055 181.933 343.434 188.14 350.484 195.118L363.304 207.805L377.703 191.032C385.624 181.809 392.103 172.837 392.103 171.094C392.103 165.444 382.095 160.726 351.939 152.161C282.129 132.334 247.262 125.021 203.22 120.969L187.372 119.512L188.504 129.26ZM202.093 136.954C197.866 139.622 196.36 137.947 196.63 130.873C196.774 127.099 197.107 126.565 197.683 129.184C198.268 131.838 199.589 132.612 202.003 131.708C206.469 130.038 206.541 134.147 202.093 136.954ZM224.749 134.968C227.351 134.968 229.034 133.71 229.034 131.764C229.034 127.4 230.777 127.738 235.559 133.035C238.103 135.852 242.283 137.631 246.852 137.84C253.634 138.15 253.92 138.415 251.255 141.909C249.686 143.966 247.307 145.647 245.966 145.647C244.625 145.647 243.531 147.811 243.533 150.453C243.536 154.267 244.656 155.35 248.968 155.707C253.232 156.057 254.4 155.28 254.4 152.095C254.4 145.03 257.756 145.247 260.934 152.518C262.619 156.375 266.011 162.655 268.473 166.472C272.55 172.794 272.646 173.413 269.564 173.417C267.051 173.422 266.127 175.081 265.984 179.855C265.734 188.136 260.896 194.345 253.404 196C246.022 197.634 241.382 195.959 234.584 189.217C230.054 184.725 229.429 182.875 230.301 176.549C231.285 169.398 231.12 169.141 225.564 169.141C212.43 169.141 205.646 148.708 215.69 139.395C218.315 136.96 222.392 134.968 224.749 134.968ZM287.587 208.48C286.275 206.365 285.202 201.936 285.202 198.636C285.202 190.635 288.632 190.959 290.011 199.089C291.307 206.718 293.994 209.296 296.374 205.191C297.67 202.954 297.944 203.266 297.509 206.496C296.755 212.102 290.598 213.333 287.587 208.48ZM273.423 239.271C271.427 241.624 267.084 232.81 267.084 226.402C267.084 223.102 267.899 220.402 268.895 220.402C269.892 220.402 270.707 222.389 270.707 224.815C270.707 227.241 271.588 231.167 272.666 233.54C273.744 235.913 274.085 238.493 273.423 239.271Z" fill="#F9ECBF"/>
<path d="M539.349 312.17C535.131 314.428 520.455 325.558 506.736 336.901C493.016 348.247 478.57 359.473 474.631 361.848C454.356 374.081 433.827 377.284 414.187 371.278C405.201 368.529 404.806 368.576 406.997 372.13C408.273 374.2 413.681 383.438 419.015 392.658C427.777 407.804 429.424 409.577 436.034 410.969C451.633 414.256 463.56 407.834 486.321 383.888C510.303 358.657 522.1 350.708 541.696 346.564C556.287 343.478 569.669 346.549 581.434 355.684C594.099 365.52 595.942 366.028 601.216 361.135C611.252 351.829 611.469 329.83 601.631 318.934C591.816 308.065 554.58 304.022 539.349 312.17Z" fill="#F9ECBF"/>
<path d="M249.695 164.537C251.27 167.535 247.111 182.111 244.323 183.371C239.355 185.62 241.752 188.364 248.684 188.364C255.935 188.364 261.648 183.475 261.648 177.271C261.648 172.661 254.679 162.734 251.443 162.734C249.963 162.734 249.177 163.546 249.695 164.537Z" fill="#F9ECBF"/>
<path d="M229.034 146.715C229.034 149.652 227.403 153.977 225.41 156.326L221.787 160.598H227.847C233.669 160.598 239.905 155.433 239.905 150.615C239.905 147.759 233.861 141.375 231.156 141.375C229.989 141.375 229.034 143.778 229.034 146.715Z" fill="#F9ECBF"/>
<path d="M113.074 289.57C102.55 292.185 102.418 292.394 104.625 302.937C105.641 307.8 106.874 309.387 109.099 308.706C110.787 308.189 121.894 307.091 133.782 306.267L155.394 304.769L145.184 295.692C134.026 285.773 130.816 285.162 113.074 289.57Z" fill="#F9ECBF"/>
<path d="M119.415 251.168C94.9206 260.717 91.0939 263.128 92.4166 268.182C94.3843 275.696 100.371 288.759 101.786 288.626C102.514 288.56 108.816 286.751 115.792 284.609C128.375 280.745 128.469 280.662 127.875 273.944C127.545 270.222 128.062 266.022 129.02 264.615C130.231 262.834 133.298 244.939 132.187 246.129C132.138 246.18 126.391 248.449 119.415 251.168Z" fill="#F9ECBF"/>
<path d="M117.841 222.705C109.999 224.975 98.3867 229.758 92.0361 233.331L80.4872 239.828L84.9969 250.32L89.5049 260.811L100.331 254.775C106.285 251.456 117.565 247.026 125.4 244.929C138.496 241.426 139.582 240.73 138.866 236.31C137.893 230.309 142.714 228.121 152.402 230.172L159.277 231.626L153.955 224.948C149.445 219.285 147.373 218.29 140.366 218.42C135.818 218.506 125.683 220.434 117.841 222.705Z" fill="#F9ECBF"/>
<path d="M131.193 200.507C120.303 202.626 96.0621 212.886 87.4122 219.04C77.5592 226.048 75.9991 228.35 78.2567 232.541C79.2351 234.356 83.1742 232.996 92.268 227.703C105.701 219.883 125.148 214.093 138.181 214.031C144.983 213.999 145.894 213.478 144.771 210.257C144.052 208.2 143.055 204.838 142.553 202.781C141.653 199.093 140.082 198.777 131.193 200.507Z" fill="#F9ECBF"/>
<path d="M113.98 192.719C102.784 194.96 76.2872 204.96 72.1906 208.491C69.3676 210.926 69.3658 211.562 72.1706 217.957C75.3396 225.18 75.6204 225.161 84.9897 217.09C93.1486 210.058 114.226 200.9 128.064 198.375C135.242 197.064 140.071 195.186 139.699 193.851C138.889 190.949 125.728 190.37 113.98 192.719Z" fill="#F9ECBF"/>
<path d="M120.803 172.328C95.8682 177.659 72.254 189.592 67.0883 199.475C63.5533 206.235 67.5268 205.96 82.627 198.403C97.7272 190.844 108.656 187.619 128.022 185.007C138.418 183.603 138.44 183.584 138.44 176.371C138.44 168.234 139.176 168.402 120.803 172.328Z" fill="#F9ECBF"/>
<path d="M123.039 156.373C99.9268 161.841 59.5926 187.8 63.2797 194.834C64.1349 196.464 66.1171 195.502 69.335 191.897C79.7479 180.225 103.418 170.244 126.775 167.672C138.143 166.42 138.44 166.232 138.44 160.288C138.44 153.556 136.757 153.127 123.039 156.373Z" fill="#F9ECBF"/>
<path d="M123.039 139.472C101.157 143.193 72.9697 156.151 58.7681 169.022C54.3381 173.035 54.3218 173.165 57.3784 180.722C60.3445 188.052 63.1746 190.387 64.4556 186.562C64.7872 185.568 70.2084 180.637 76.501 175.598C88.6406 165.882 109.497 155.38 120.774 153.304C124.512 152.616 130.352 151.546 133.751 150.925C138.58 150.043 140.344 148.404 141.81 143.449C143.597 137.407 143.454 137.116 138.799 137.364C136.11 137.507 129.018 138.455 123.039 139.472Z" fill="#F9ECBF"/>
<path d="M94.955 126.405C78.7876 131.527 62.1926 140.813 52.8433 149.968C46.1846 156.489 46.114 156.719 48.8137 162.875C50.3266 166.322 52.0062 169.141 52.5498 169.141C53.0915 169.141 56.9436 166.388 61.1091 163.022C79.9671 147.783 101.663 138.618 128.114 134.718C156.648 130.512 155.584 124.472 126.049 122.981C112.409 122.293 105.544 123.049 94.955 126.405Z" fill="#F9ECBF"/>
<path d="M36.9748 105.206C28.0858 107.043 4.36101 115.322 4.36101 116.586C4.36101 116.86 6.28885 121.826 8.64429 127.627C11.0015 133.425 15.2178 145.38 18.0171 154.19L23.1049 170.209L35.7319 154.784C50.7778 136.405 72.2576 122.21 94.3426 116.046L108.544 112.084L94.955 108.384C78.5448 103.918 50.6147 102.387 36.9748 105.206Z" fill="#F9ECBF"/>
<path d="M90.2568 11.3048C84.5204 18.7782 76.7275 22.2854 62.8032 23.6609L49.5511 24.9701L54.5791 36.4547C61.6074 52.5058 83.7721 76.545 101.655 87.5127C116.727 96.7568 139.011 105.065 148.728 105.065C154.684 105.065 168.008 93.6213 181.38 77.0192C186.591 70.5518 192.797 56.9783 192.797 52.0509C192.797 51.0107 188.517 51.5254 183.284 53.1957C171.152 57.0702 151.337 55.4362 137.748 49.443C124.077 43.4134 107.51 28.6246 101.121 16.7492C98.2273 11.371 95.3754 6.93698 94.7829 6.89426C94.1904 6.8494 92.1539 8.83577 90.2568 11.3048Z" fill="#F9ECBF"/>
<path d="M259.811 40.4488C251.936 62.8434 237.468 77.0192 220.25 79.2106L210.009 80.5135L218.375 85.191C229.955 91.6649 254.821 97.3292 264.038 95.5927C273.423 93.8242 282.003 86.1928 287.868 74.3964C292.713 64.6482 296.672 45.31 294.921 39.9341C293.934 36.9011 282.325 32.136 269.638 29.5559C264.281 28.4666 263.86 28.9343 259.811 40.4488Z" fill="#F9ECBF"/>
<path d="M374.89 69.5757C365.664 72.4912 355.862 76.7202 355.869 77.7796C355.871 78.1021 358.522 78.5698 361.758 78.8155C374.769 79.8086 383.269 84.3239 393.408 95.6269L403.534 106.915L411.378 97.3997C415.868 91.9553 421.574 87.3312 424.717 86.59C429.267 85.5178 429.836 84.7617 428.031 82.1987C419.7 70.366 392.692 63.9519 374.89 69.5757Z" fill="#F9ECBF"/>
<path d="M335.873 96.0306C333.915 98.9674 333.14 99.5532 332.726 99.1866C333.14 99.5532 334.302 102.465 337.805 100.025C345.524 94.6508 360.372 93.4056 370.886 97.2523C379.494 100.401 379.556 100.39 378.384 95.8042C376.458 88.2753 374.564 87.156 362.184 86.2269C348.79 85.2209 341.199 88.051 335.873 96.0306Z" fill="#F9ECBF"/>
</svg>
