<svg width="547" height="359" viewBox="0 0 547 359" fill="none" xmlns="http://www.w3.org/2000/svg">
<path fill-rule="evenodd" clip-rule="evenodd" d="M82.4422 2.26344C82.4422 5.21184 74.0003 12.2668 66.6119 15.4944C63.4109 16.8916 55.9231 18.1284 49.9717 18.2423C44.0203 18.3545 39.1482 18.9898 39.1466 19.6507C39.1434 20.3116 39.8635 20.8538 40.7455 20.8538C41.6276 20.8538 42.3492 22.8782 42.3492 25.3518C42.3492 33.3356 50.456 46.8537 62.2755 58.5735C79.9869 76.1388 106.354 88.2276 126.952 88.2276C147.215 88.2276 175.458 63.3201 175.458 45.45V40.5799L157.414 39.6912C137.209 38.6966 123.355 34.9109 110.927 26.9912C102.38 21.5436 87.2534 5.75244 87.2534 2.27627C87.2534 1.02504 86.1709 0 84.8478 0C83.5247 0 82.4422 1.01863 82.4422 2.26344ZM79.8875 12.9967C74.8101 18.6096 67.9125 21.2436 55.588 22.2767L43.8583 23.26L48.3087 31.8855C54.5295 43.9405 74.1478 61.9951 89.9765 70.2324C103.316 77.1751 123.04 83.4152 131.641 83.4152C136.913 83.4152 148.706 74.8202 160.542 62.3512C165.154 57.4939 170.647 47.2996 170.647 43.5989C170.647 42.8177 166.859 43.2043 162.227 44.4587C151.489 47.3686 133.95 46.1414 121.923 41.6402C109.823 37.1117 95.1581 26.0047 89.5034 17.0857C86.9423 13.0465 84.418 9.71626 83.8936 9.68418C83.3692 9.65049 81.5666 11.1423 79.8875 12.9967ZM230.401 24.4374C231.601 27.5655 223.865 40.928 216.455 48.522C208.554 56.6229 202.155 59.6948 190.693 60.8899L181.071 61.8925L187.601 68.3074C194.82 75.3993 205.848 79.7449 220.519 81.2785C244.367 83.7713 264.445 66.676 264.458 43.8652C264.461 38.4368 265.099 34.3863 265.876 34.8659C266.652 35.3456 266.956 34.7488 266.554 33.5409C265.122 29.2434 250.762 23.4076 239.919 22.7162C231.173 22.1596 229.633 22.4387 230.401 24.4374ZM229.962 34.8852C222.992 51.7046 210.186 62.3512 194.946 63.9971L185.882 64.9756L193.286 68.4887C203.536 73.3508 225.545 77.605 233.703 76.3008C242.011 74.9726 249.604 69.241 254.796 60.3814C259.084 53.0601 262.588 38.5362 261.039 34.4986C260.165 32.2207 249.89 28.6419 238.66 26.7041C233.918 25.886 233.546 26.2373 229.962 34.8852ZM338.235 47.5739C328.908 48.9406 313.527 54.7813 307.215 59.3563C301.566 63.4469 287.593 80.8518 292.282 77.9531C293.301 77.3243 294.5 77.9461 294.5 79C294.867 79.2753 295.552 78.8354 297.286 76.6297C301.999 70.6366 308.719 68.5111 320.574 69.2667C331.532 69.9645 333.208 70.8051 334.913 76.4596C335.95 79.9037 335.896 79.9117 328.276 77.5472C318.97 74.6582 305.827 75.5934 298.996 79.6294C295.895 81.4619 294.867 79.2753 294.5 79C294.367 79.7753 296.059 84.0511 299.695 82.5313C302.753 81.2528 310.23 80.2069 316.308 80.2069C325.264 80.2069 329.073 81.0715 336.406 84.7707C341.382 87.2812 345.452 88.7666 345.452 88.0704C345.452 87.3758 343.938 84.2397 342.086 81.1004C340.235 77.9627 339.384 75.3945 340.194 75.3945C343.218 75.3945 354.879 86.8224 355.368 90.2664C356.126 95.605 358.802 94.6425 365.486 86.6235C372.616 78.0702 378.595 73.816 383.507 73.8016C386.794 73.7919 386.929 73.4374 385.188 69.379C381.364 60.4632 376.824 55.6475 368.852 52.0495C360.537 48.2958 346.91 46.305 338.235 47.5739ZM331.821 56.7608C323.654 58.9505 314.978 62.1267 314.985 62.9223C314.986 63.1645 317.333 63.5158 320.197 63.7003C331.713 64.4462 339.236 67.8374 348.211 76.3265L357.174 84.8044L364.116 77.6579C368.09 73.569 373.14 70.096 375.923 69.5394C379.95 68.7341 380.453 68.1662 378.856 66.2413C371.482 57.3543 347.577 52.5371 331.821 56.7608ZM33.5593 77.1077C24.5287 78.6172 8.01843 84.3311 2.77587 87.7624C-1.31682 90.4397 -0.919095 96.5819 4.20318 109.883C15.7917 139.971 17.854 141.445 29.6783 128.076L37.0538 119.738L39.8507 127.644C41.3886 131.992 44.835 141.471 47.5084 148.707C50.1834 155.943 52.0999 162.148 51.7695 162.496C51.4407 162.844 52.0084 164.142 53.0348 165.38C54.0612 166.619 60.776 180.265 67.959 195.705C75.1405 211.145 82.9394 227.026 85.2888 230.996C87.6383 234.966 89.3831 239.063 89.1666 240.099C88.9501 241.136 89.4024 242.372 90.1721 242.849C90.9419 243.325 104.58 242.939 120.479 241.991L149.386 240.266L163.129 246.983C170.687 250.675 177.791 254.806 178.917 256.163C180.372 257.917 180.846 264.014 180.564 277.296C180.344 287.563 180.795 299.703 181.563 304.273C182.907 312.253 182.781 312.717 178.422 315.941C169.109 322.828 163.964 338.909 167.989 348.546C169.973 353.295 171.641 354.66 177.341 356.207C185.55 358.433 208.317 357.327 228.381 353.725C248.135 350.178 297.926 348.804 315.783 351.309C323.722 352.424 332.023 353.242 334.231 353.127C336.438 353.013 343.654 354.077 350.268 355.491C372.829 360.318 376.454 360.24 382.554 354.79C387.684 350.207 387.951 349.428 387.951 339.007C387.951 332.979 387.399 326.543 386.725 324.705C385.569 321.556 386.049 321.362 394.983 321.362C407.607 321.362 417.955 316.169 434.459 301.549C468.02 271.82 488.91 265.815 510.018 279.834C525.059 289.823 537.19 288.848 544.35 277.07C548.085 270.924 547.822 253.754 543.874 246.161C537.878 234.628 523.906 228.023 502.577 226.641C480.02 225.179 472.3 228.339 439.27 252.555C431.331 258.377 418.753 266.192 411.32 269.925C398.139 276.545 397.424 276.711 382.453 276.576C371.614 276.48 364.182 275.475 357.164 273.162C346.969 269.8 338.197 262.548 299.134 225.19L287.191 213.771L302.49 214.569C338.232 216.44 346.916 206.441 333.02 179.412L327.005 167.708L339.571 155.698C369.781 126.828 364.755 121.634 290.741 105.236C272.76 101.253 249.389 96.8482 238.805 95.4462C228.22 94.0458 212.704 91.7102 204.325 90.2552C181.813 86.3459 156.207 86.7823 144.65 91.2706C137.692 93.972 134.744 94.4244 132.371 93.1539C130.653 92.2347 123.226 90.4237 115.869 89.1307C108.509 87.8378 97.437 84.984 91.2627 82.7896C71.9074 75.9094 52.2843 73.9764 33.5593 77.1077ZM32.7269 83.521C24.8591 84.9006 3.85999 91.1183 3.85999 92.0679C3.85999 92.2732 5.56634 96.0028 7.65118 100.36C9.73762 104.715 13.4695 113.693 15.9472 120.31L20.4505 132.341L31.6268 120.756C44.9441 106.953 63.9562 96.2916 83.5039 91.662L96.0738 88.6864L84.0459 85.908C69.5211 82.5538 44.7997 81.4036 32.7269 83.521ZM166.848 101.587C167.839 108.82 167.749 109.003 159.357 116.72L150.862 124.534L152.663 131.629C154.308 138.111 154.104 139.35 150.31 145.961C148.026 149.939 144.381 155.585 142.208 158.508L138.258 163.819L144.928 170.167C154.319 179.104 171.24 187.132 190.047 191.579C198.899 193.671 206.488 195.73 206.912 196.154C207.335 196.577 205.176 197.394 202.115 197.968C194.558 199.386 177.71 196.504 164.612 191.552C143.74 183.661 132.158 182.188 132.158 187.426C132.158 189.049 130.353 191.2 128.148 192.205C125.09 193.599 124.139 195.248 124.139 199.154C124.139 201.971 123.023 205.508 121.66 207.016C119.387 209.526 119.703 210.169 125.435 214.711C136.019 223.096 155.07 234.204 158.866 234.204C160.848 234.204 163.045 235.181 163.751 236.375C164.456 237.57 170.446 240.342 177.062 242.536L189.09 246.526V269.64C189.09 282.354 189.705 298.246 190.459 304.959L191.829 317.162L186.965 320.629C180.503 325.229 175.458 333.666 175.458 339.866C175.458 344.789 177.485 346.494 179.486 343.255C180.378 341.81 195.145 333.661 196.871 333.661C197.24 333.661 195.099 336.328 192.113 339.588C182.923 349.624 183.938 350.344 205.528 349.088C225.587 347.922 228.007 347.703 249.229 345.14C294.957 339.615 326.498 341.568 364.296 352.264C367.247 353.098 367.904 352.647 367.904 349.784C367.904 347.859 367.099 344.777 366.114 342.939C364.354 339.646 364.402 339.649 369.274 343.119C371.995 345.057 374.669 347.366 375.216 348.25C376.88 350.945 380.561 346.645 381.675 340.704C382.989 333.694 378.178 323.803 363.499 303.334C351.463 286.552 341.656 276.223 305.603 242.353C292.066 229.636 280.223 217.547 279.286 215.489C278.348 213.431 276.269 211.746 274.664 211.746C273.06 211.746 267.009 210.19 261.218 208.289C245.38 203.089 249.997 201.294 272.767 203.801C301.419 206.956 322.96 206.775 328.209 203.336C332.369 200.609 332.424 200.365 330.377 193.567C327.46 183.871 317.318 169.654 303.897 156.447C292.586 145.316 289.309 139.018 295.702 140.689C297.446 141.147 303.978 145.808 310.218 151.049L321.565 160.577L334.31 147.98C341.321 141.053 347.056 134.314 347.056 133.006C347.056 128.763 338.197 125.219 311.506 118.786C249.717 103.895 218.855 98.4026 179.873 95.3596L165.845 94.2656L166.848 101.587ZM84.0459 99.4421C69.736 103.289 55.0475 110.264 46.7723 117.139C40.8786 122.036 40.8161 122.21 43.2056 126.833C44.5447 129.422 46.0314 131.539 46.5125 131.539C46.992 131.539 50.4015 129.472 54.0885 126.943C70.78 115.498 89.9829 108.615 113.396 105.685C138.651 102.527 137.71 97.9904 111.567 96.8707C99.4946 96.3542 93.4181 96.922 84.0459 99.4421ZM174.04 102.798C173.801 108.111 175.134 109.369 178.875 107.365C182.813 105.257 182.748 102.171 178.795 103.425C176.659 104.104 175.49 103.523 174.972 101.529C174.462 99.5624 174.167 99.9635 174.04 102.798ZM202.721 103.467C202.721 104.928 201.231 105.873 198.928 105.873C196.842 105.873 193.234 107.37 190.91 109.198C182.02 116.193 188.025 131.539 199.65 131.539C204.567 131.539 204.713 131.732 203.842 137.102C203.071 141.854 203.624 143.243 207.633 146.617C213.65 151.681 217.758 152.939 224.291 151.711C230.923 150.468 235.204 145.805 235.426 139.586C235.552 136 236.37 134.754 238.595 134.751C241.323 134.748 241.238 134.282 237.629 129.534C235.45 126.668 232.448 121.951 230.956 119.054C228.143 113.594 225.173 113.43 225.173 118.737C225.173 121.128 224.139 121.712 220.365 121.449C216.548 121.181 215.557 120.368 215.554 117.503C215.553 115.519 216.521 113.894 217.708 113.894C218.895 113.894 221 112.631 222.389 111.087C224.748 108.462 224.495 108.263 218.492 108.031C214.448 107.873 210.748 106.537 208.496 104.421C204.264 100.443 202.721 100.19 202.721 103.467ZM108.904 109.256C89.5355 112.051 64.5864 121.783 52.0165 131.449C48.0954 134.464 48.0809 134.562 50.7864 140.237C53.4117 145.742 55.9167 147.496 57.0505 144.623C57.344 143.877 62.1423 140.173 67.7121 136.389C78.457 129.091 96.9174 121.204 106.899 119.645C110.207 119.128 115.376 118.324 118.385 117.858C122.659 117.195 124.221 115.965 125.518 112.243C127.099 107.705 126.973 107.487 122.853 107.673C120.473 107.78 114.196 108.493 108.904 109.256ZM202.721 114.696C202.721 116.902 201.278 120.15 199.514 121.914L196.306 125.123H201.671C206.823 125.123 212.343 121.244 212.343 117.625C212.343 115.48 206.993 110.686 204.599 110.686C203.566 110.686 202.721 112.49 202.721 114.696ZM108.904 121.95C88.4466 126.056 52.7462 145.553 56.0097 150.835C56.7667 152.059 58.5212 151.338 61.3694 148.63C70.5859 139.863 91.5369 132.367 112.21 130.436C122.272 129.496 122.535 129.354 122.535 124.89C122.535 119.834 121.045 119.511 108.904 121.95ZM221.008 128.081C222.402 130.333 218.721 141.28 216.253 142.226C211.856 143.915 213.978 145.977 220.113 145.977C226.532 145.977 231.588 142.305 231.588 137.645C231.588 134.183 225.42 126.727 222.556 126.727C221.246 126.727 220.55 127.336 221.008 128.081ZM106.925 133.933C84.8542 137.937 63.9529 146.899 59.3807 154.321C56.2519 159.398 59.7688 159.191 73.1342 153.516C86.4996 147.839 96.1733 145.417 113.314 143.455C122.516 142.401 122.535 142.387 122.535 136.969C122.535 130.858 123.186 130.984 106.925 133.933ZM100.885 149.247C90.9756 150.93 67.5228 158.441 63.8968 161.092C61.3982 162.921 61.3966 163.399 63.8792 168.202C66.6841 173.627 66.9327 173.613 75.2255 167.551C82.447 162.27 101.103 155.391 113.351 153.495C119.705 152.51 123.979 151.1 123.65 150.098C122.933 147.918 111.284 147.483 100.885 149.247ZM252.436 153.691C252.436 156.169 253.386 159.496 254.547 161.084C257.212 164.729 262.662 163.805 263.329 159.594C263.714 157.169 263.472 156.934 262.325 158.614C260.218 161.697 257.839 159.761 256.693 154.031C255.472 147.926 252.436 147.682 252.436 153.691ZM116.12 155.096C106.482 156.687 85.0258 164.394 77.3697 169.015C68.6486 174.278 67.2678 176.008 69.2661 179.155C70.1321 180.518 73.6186 179.497 81.6676 175.522C93.5576 169.649 110.77 165.3 122.306 165.253C128.326 165.229 129.133 164.838 128.139 162.419C127.502 160.874 126.62 158.349 126.176 156.804C125.379 154.034 123.988 153.797 116.12 155.096ZM104.303 171.768C97.3616 173.473 87.0834 177.065 81.4624 179.748L71.2402 184.628L75.2319 192.508L79.222 200.387L88.8042 195.854C94.074 193.361 104.059 190.034 110.993 188.459C122.585 185.828 123.546 185.305 122.912 181.986C122.051 177.479 126.318 175.836 134.893 177.376L140.978 178.468L136.268 173.452C132.276 169.2 130.442 168.452 124.24 168.55C120.215 168.614 111.243 170.063 104.303 171.768ZM236.399 174.545C236.399 179.357 240.243 185.977 242.011 184.21C242.596 183.626 242.295 181.688 241.34 179.906C240.386 178.123 239.607 175.175 239.607 173.353C239.607 171.53 238.885 170.039 238.003 170.039C237.121 170.039 236.399 172.066 236.399 174.545ZM105.696 193.145C84.0155 200.317 80.6284 202.128 81.7991 205.923C83.5408 211.567 88.8395 221.377 90.092 221.278C90.7367 221.228 96.3144 219.87 102.489 218.261C113.627 215.359 113.71 215.296 113.184 210.251C112.892 207.455 113.349 204.301 114.197 203.244C115.269 201.906 117.984 188.467 117.001 189.36C116.957 189.399 111.87 191.103 105.696 193.145ZM100.083 221.987C90.7687 223.951 90.6517 224.108 92.605 232.026C93.5047 235.678 94.5952 236.87 96.5646 236.359C98.0592 235.97 107.89 235.146 118.412 234.527L137.541 233.402L128.504 226.584C118.629 219.135 115.787 218.676 100.083 221.987ZM477.385 238.96C473.652 240.656 460.662 249.015 448.518 257.535C436.375 266.056 423.589 274.487 420.102 276.271C402.156 285.458 383.986 287.864 366.602 283.353C358.649 281.289 358.3 281.324 360.238 283.993C361.367 285.548 366.155 292.486 370.876 299.411C378.632 310.786 380.089 312.117 385.94 313.163C399.746 315.632 410.303 310.808 430.449 292.824C451.676 273.874 462.118 267.904 479.462 264.792C492.377 262.474 504.222 264.781 514.635 271.642C525.845 279.029 527.476 279.41 532.144 275.735C541.027 268.746 541.22 252.223 532.512 244.041C523.824 235.877 490.866 232.841 477.385 238.96Z" fill="black"/>
<path fill-rule="evenodd" clip-rule="evenodd" d="M166.848 101.587C167.839 108.82 167.749 109.003 159.357 116.72L150.862 124.534L152.663 131.629C154.308 138.111 154.104 139.35 150.31 145.961C148.026 149.939 144.381 155.585 142.208 158.508L138.258 163.819L144.928 170.167C154.319 179.104 171.24 187.132 190.047 191.579C198.899 193.671 206.488 195.73 206.912 196.154C207.335 196.577 205.176 197.394 202.115 197.968C194.558 199.386 177.71 196.504 164.612 191.552C143.74 183.661 132.158 182.188 132.158 187.426C132.158 189.049 130.353 191.2 128.148 192.205C125.09 193.599 124.139 195.248 124.139 199.154C124.139 201.971 123.023 205.508 121.66 207.016C119.387 209.526 119.703 210.169 125.435 214.711C136.019 223.096 155.07 234.204 158.866 234.204C160.848 234.204 163.045 235.181 163.751 236.375C164.456 237.57 170.446 240.342 177.062 242.536L189.09 246.526V269.64C189.09 282.354 189.705 298.246 190.459 304.959L191.829 317.162L186.965 320.629C180.503 325.229 175.458 333.666 175.458 339.866C175.458 344.789 177.485 346.494 179.486 343.255C180.378 341.81 195.145 333.661 196.871 333.661C197.24 333.661 195.099 336.328 192.113 339.588C182.923 349.624 183.938 350.344 205.528 349.088C225.587 347.922 228.007 347.703 249.229 345.14C294.957 339.615 326.498 341.568 364.296 352.264C367.247 353.098 367.904 352.647 367.904 349.784C367.904 347.859 367.099 344.777 366.114 342.939C364.354 339.646 364.402 339.649 369.274 343.119C371.995 345.057 374.669 347.366 375.216 348.25C376.88 350.945 380.561 346.645 381.675 340.704C382.989 333.694 378.178 323.803 363.499 303.334C351.463 286.552 341.656 276.223 305.603 242.353C292.066 229.636 280.223 217.547 279.286 215.489C278.348 213.431 276.269 211.746 274.664 211.746C273.06 211.746 267.009 210.19 261.218 208.289C245.38 203.089 249.997 201.294 272.767 203.801C301.419 206.956 322.96 206.775 328.209 203.336C332.369 200.609 332.424 200.365 330.377 193.567C327.46 183.871 317.318 169.654 303.897 156.447C292.586 145.316 289.309 139.018 295.702 140.689C297.446 141.147 303.978 145.808 310.218 151.049L321.565 160.577L334.31 147.98C341.321 141.053 347.056 134.314 347.056 133.006C347.056 128.763 338.197 125.219 311.506 118.786C249.717 103.895 218.855 98.4026 179.873 95.3596L165.845 94.2656L166.848 101.587ZM178.875 107.365C175.134 109.369 173.801 108.111 174.04 102.798C174.167 99.9635 174.462 99.5624 174.972 101.529C175.49 103.523 176.659 104.104 178.795 103.425C182.748 102.171 182.813 105.257 178.875 107.365ZM198.928 105.873C201.231 105.873 202.721 104.928 202.721 103.467C202.721 100.19 204.264 100.443 208.496 104.421C210.748 106.537 214.448 107.873 218.492 108.031C224.495 108.263 224.748 108.462 222.389 111.087C221 112.631 218.895 113.894 217.708 113.894C216.521 113.894 215.553 115.519 215.554 117.503C215.557 120.368 216.548 121.181 220.365 121.449C224.139 121.712 225.173 121.128 225.173 118.737C225.173 113.43 228.143 113.594 230.956 119.054C232.448 121.951 235.45 126.668 237.629 129.534C241.238 134.282 241.323 134.748 238.595 134.751C236.37 134.754 235.552 136 235.426 139.586C235.204 145.805 230.923 150.468 224.291 151.711C217.758 152.939 213.65 151.681 207.633 146.617C203.624 143.243 203.071 141.854 203.842 137.102C204.713 131.732 204.567 131.539 199.65 131.539C188.025 131.539 182.02 116.193 190.91 109.198C193.234 107.37 196.842 105.873 198.928 105.873ZM254.547 161.084C253.386 159.496 252.436 156.169 252.436 153.691C252.436 147.682 255.472 147.926 256.693 154.031C257.839 159.761 260.218 161.697 262.325 158.614C263.472 156.934 263.714 157.169 263.329 159.594C262.662 163.805 257.212 164.729 254.547 161.084ZM242.011 184.21C240.243 185.977 236.399 179.357 236.399 174.545C236.399 172.066 237.121 170.039 238.003 170.039C238.885 170.039 239.607 171.53 239.607 173.353C239.607 175.175 240.386 178.123 241.34 179.906C242.295 181.688 242.596 183.626 242.011 184.21Z" fill="#F9ECBF"/>
<path d="M477.385 238.96C473.652 240.656 460.662 249.015 448.518 257.535C436.375 266.056 423.589 274.487 420.102 276.271C402.156 285.458 383.986 287.864 366.602 283.353C358.649 281.289 358.3 281.324 360.238 283.993C361.367 285.548 366.155 292.486 370.876 299.411C378.632 310.786 380.089 312.117 385.94 313.163C399.746 315.632 410.303 310.808 430.449 292.824C451.676 273.874 462.118 267.904 479.462 264.792C492.377 262.474 504.222 264.781 514.635 271.642C525.845 279.029 527.476 279.41 532.144 275.735C541.027 268.746 541.22 252.223 532.512 244.041C523.824 235.877 490.866 232.841 477.385 238.96Z" fill="#F9ECBF"/>
<path d="M221.008 128.081C222.402 130.333 218.721 141.28 216.253 142.226C211.856 143.915 213.978 145.977 220.113 145.977C226.532 145.977 231.588 142.305 231.588 137.645C231.588 134.183 225.42 126.727 222.556 126.727C221.246 126.727 220.55 127.336 221.008 128.081Z" fill="#F9ECBF"/>
<path d="M202.721 114.696C202.721 116.902 201.278 120.15 199.514 121.914L196.306 125.123H201.671C206.823 125.123 212.343 121.244 212.343 117.625C212.343 115.48 206.993 110.686 204.599 110.686C203.566 110.686 202.721 112.49 202.721 114.696Z" fill="#F9ECBF"/>
<path d="M100.083 221.987C90.7687 223.951 90.6517 224.108 92.605 232.026C93.5047 235.678 94.5952 236.87 96.5646 236.359C98.0592 235.97 107.89 235.146 118.412 234.527L137.541 233.402L128.504 226.584C118.629 219.135 115.787 218.676 100.083 221.987Z" fill="#F9ECBF"/>
<path d="M105.696 193.145C84.0155 200.317 80.6284 202.128 81.7991 205.923C83.5408 211.567 88.8395 221.377 90.092 221.278C90.7367 221.228 96.3144 219.87 102.489 218.261C113.627 215.359 113.71 215.296 113.184 210.251C112.892 207.455 113.349 204.301 114.197 203.244C115.269 201.906 117.984 188.467 117.001 189.36C116.957 189.399 111.87 191.103 105.696 193.145Z" fill="#F9ECBF"/>
<path d="M104.303 171.768C97.3616 173.473 87.0834 177.065 81.4624 179.748L71.2402 184.628L75.2319 192.508L79.222 200.387L88.8042 195.854C94.074 193.361 104.059 190.034 110.993 188.459C122.585 185.828 123.546 185.305 122.912 181.986C122.051 177.479 126.318 175.836 134.893 177.376L140.978 178.468L136.268 173.452C132.276 169.2 130.442 168.452 124.24 168.55C120.215 168.614 111.243 170.063 104.303 171.768Z" fill="#F9ECBF"/>
<path d="M116.12 155.096C106.482 156.687 85.0258 164.394 77.3697 169.015C68.6486 174.278 67.2678 176.008 69.2661 179.155C70.1321 180.518 73.6186 179.497 81.6676 175.522C93.5576 169.649 110.77 165.3 122.306 165.253C128.326 165.229 129.133 164.838 128.139 162.419C127.502 160.874 126.62 158.349 126.176 156.804C125.379 154.034 123.988 153.797 116.12 155.096Z" fill="#F9ECBF"/>
<path d="M100.885 149.247C90.9756 150.93 67.5228 158.441 63.8968 161.092C61.3982 162.921 61.3966 163.399 63.8792 168.202C66.6841 173.627 66.9327 173.613 75.2255 167.551C82.447 162.27 101.103 155.391 113.351 153.495C119.705 152.51 123.979 151.1 123.65 150.098C122.933 147.918 111.284 147.483 100.885 149.247Z" fill="#F9ECBF"/>
<path d="M106.925 133.933C84.8542 137.937 63.9529 146.899 59.3807 154.321C56.2519 159.398 59.7688 159.191 73.1342 153.516C86.4996 147.839 96.1733 145.417 113.314 143.455C122.516 142.401 122.535 142.387 122.535 136.969C122.535 130.858 123.186 130.984 106.925 133.933Z" fill="#F9ECBF"/>
<path d="M108.904 121.95C88.4466 126.056 52.7462 145.553 56.0097 150.835C56.7667 152.059 58.5212 151.338 61.3694 148.63C70.5859 139.863 91.5369 132.367 112.21 130.436C122.272 129.496 122.535 129.354 122.535 124.89C122.535 119.834 121.045 119.511 108.904 121.95Z" fill="#F9ECBF"/>
<path d="M108.904 109.256C89.5355 112.051 64.5864 121.783 52.0165 131.449C48.0954 134.464 48.0809 134.562 50.7864 140.237C53.4117 145.742 55.9167 147.496 57.0505 144.623C57.344 143.877 62.1423 140.173 67.7121 136.389C78.457 129.091 96.9174 121.204 106.899 119.645C110.207 119.128 115.376 118.324 118.385 117.858C122.659 117.195 124.221 115.965 125.518 112.243C127.099 107.705 126.973 107.487 122.853 107.673C120.473 107.78 114.196 108.493 108.904 109.256Z" fill="#F9ECBF"/>
<path d="M84.0459 99.4421C69.736 103.289 55.0475 110.264 46.7723 117.139C40.8786 122.036 40.8161 122.21 43.2056 126.833C44.5447 129.422 46.0314 131.539 46.5125 131.539C46.992 131.539 50.4015 129.472 54.0885 126.943C70.78 115.498 89.9829 108.615 113.396 105.685C138.651 102.527 137.71 97.9904 111.567 96.8707C99.4946 96.3542 93.4181 96.922 84.0459 99.4421Z" fill="#F9ECBF"/>
<path d="M32.7269 83.521C24.8591 84.9006 3.85999 91.1183 3.85999 92.0679C3.85999 92.2732 5.56634 96.0028 7.65118 100.36C9.73762 104.715 13.4695 113.693 15.9472 120.31L20.4505 132.341L31.6268 120.756C44.9441 106.953 63.9562 96.2916 83.5039 91.662L96.0738 88.6864L84.0459 85.908C69.5211 82.5538 44.7997 81.4036 32.7269 83.521Z" fill="#F9ECBF"/>
<path d="M79.8875 12.9967C74.8101 18.6096 67.9125 21.2436 55.588 22.2767L43.8583 23.26L48.3087 31.8855C54.5295 43.9405 74.1478 61.9951 89.9765 70.2324C103.316 77.1751 123.04 83.4152 131.641 83.4152C136.913 83.4152 148.706 74.8202 160.542 62.3512C165.154 57.4939 170.647 47.2996 170.647 43.5989C170.647 42.8177 166.859 43.2043 162.227 44.4587C151.489 47.3686 133.95 46.1414 121.923 41.6402C109.823 37.1117 95.1581 26.0047 89.5034 17.0857C86.9423 13.0465 84.418 9.71626 83.8936 9.68418C83.3692 9.65049 81.5666 11.1423 79.8875 12.9967Z" fill="#F9ECBF"/>
<path d="M229.962 34.8852C222.992 51.7046 210.186 62.3512 194.946 63.9971L185.882 64.9756L193.286 68.4887C203.536 73.3508 225.545 77.605 233.703 76.3008C242.011 74.9726 249.604 69.241 254.796 60.3814C259.084 53.0601 262.588 38.5362 261.039 34.4986C260.165 32.2207 249.89 28.6419 238.66 26.7041C233.918 25.886 233.546 26.2373 229.962 34.8852Z" fill="#F9ECBF"/>
<path d="M331.821 56.7608C323.654 58.9505 314.978 62.1267 314.985 62.9223C314.986 63.1645 317.333 63.5158 320.197 63.7003C331.713 64.4462 339.236 67.8374 348.211 76.3265L357.174 84.8044L364.116 77.6579C368.09 73.569 373.14 70.096 375.923 69.5394C379.95 68.7341 380.453 68.1662 378.856 66.2413C371.482 57.3543 347.577 52.5371 331.821 56.7608Z" fill="#F9ECBF"/>
<path d="M297.286 76.6297C295.552 78.8354 294.867 79.2753 294.5 79C294.867 79.2753 295.895 81.4619 298.996 79.6294C305.827 75.5934 318.97 74.6582 328.276 77.5472C335.896 79.9117 335.95 79.9037 334.913 76.4596C333.208 70.8051 331.532 69.9645 320.574 69.2667C308.719 68.5111 301.999 70.6366 297.286 76.6297Z" fill="#F9ECBF"/>
</svg>
