<svg width="521" height="356" viewBox="0 0 521 356" fill="none" xmlns="http://www.w3.org/2000/svg">
<path fill-rule="evenodd" clip-rule="evenodd" d="M334.205 3.17988C312.423 11.0863 288.821 25.7634 273.303 41.053C267.553 46.7193 257.299 53.7163 247.141 58.9019C228.357 68.4918 212.332 78.9873 193.996 93.7108C180.13 104.841 181.417 105.333 178.632 87.8459C176.777 76.1959 163.521 43.8536 157.869 37.1851C153.756 32.3336 150.209 30.5685 139.792 28.2003C121.169 23.9668 99.904 23.05 80.6387 25.6502C62.7175 28.0667 31.7152 37.4876 17.1953 44.9282C9.00964 49.1228 0 56.1179 0 58.282C0 58.785 2.47367 67.5415 5.49725 77.7438C12.6757 101.966 19.1302 135.539 24.957 178.96C27.5474 198.26 30.0636 215.138 30.5487 216.465C31.2412 218.36 38.4715 218.711 64.3191 218.098C99.3875 217.269 118.295 214.318 137.94 206.61C144.051 204.212 155.78 199.68 164.005 196.539C172.229 193.399 182.359 187.915 186.512 184.351L194.065 177.87L203.593 182.295L213.119 186.719L206.622 190.745C198.125 196.009 191.158 204.435 185.812 215.908C178.099 232.464 180.95 255.649 191.389 261.248L195.603 263.509L192.291 273.115C185.686 292.276 189.526 309.611 202.587 319.598C208.888 324.414 209.39 325.458 208.386 331.636C207.037 339.938 211.793 350.311 218.483 353.661C229.492 359.175 247.759 354.619 259.73 343.371C264.416 338.969 267.453 338.253 293.983 335.307C336.338 330.604 343.62 330.857 362.589 337.688C384.269 345.497 402.903 346.122 410.174 339.288C414.325 335.385 414.897 333.641 413.958 327.731L412.851 320.771H420.402C424.555 320.771 429.745 319.81 431.935 318.635C434.125 317.458 444.694 315.998 455.42 315.387C473.932 314.331 474.952 314.06 475.522 310.04C475.852 307.711 474.393 302.226 472.282 297.854C470.169 293.481 468.442 289.433 468.442 288.858C468.442 288.284 474.739 283.063 482.434 277.258C490.129 271.45 497.087 264.908 497.896 262.718C499.872 257.36 498.43 252.627 494.504 251.599C489.072 250.175 486.313 235.712 487.417 214.44C488.531 192.968 491.636 184.231 507.262 158.594C521.385 135.416 524.644 116.76 516.923 103.271C510.356 91.7991 486.061 84.7817 476.396 91.5671C472.273 94.4625 457.886 114.171 452.298 124.581C449.717 129.39 448.916 137.261 448.127 165.582L447.149 200.628L439.104 193.885C434.681 190.175 429.378 187.141 427.323 187.141C423.912 187.141 423.699 187.917 424.897 195.957C425.619 200.804 428.202 211.036 430.637 218.692C436.331 236.586 436.362 239.075 430.83 233.863C426.582 229.865 418.45 228.299 418.45 231.482C418.45 232.391 420.098 236.775 422.113 241.226C426.042 249.904 427.091 267.163 424.16 274.891C421.687 281.411 416.958 285.508 411.903 285.508C404.473 285.508 389.955 279.914 386.318 275.652C382.943 271.695 382.96 271.61 387.244 270.604C391.034 269.715 391.675 268.319 392.164 259.899C392.669 251.142 393.049 250.392 396.135 252.048C398.655 253.401 400.179 253.113 401.971 250.947C404.001 248.498 403.682 245.994 400.038 235.675C393.545 217.284 383.078 197.241 371.615 181.242L361.404 166.992L369.097 165.741C373.328 165.053 383.808 161.222 392.384 157.226C405.315 151.203 410.609 147.289 423.397 134.295C437.304 120.166 438.817 117.933 438.817 111.537C438.817 102.252 435.475 97.8106 422.598 89.984C408.163 81.2108 393.858 76.0215 380.245 74.6239L368.873 73.4565L367.949 49.0986C366.896 21.3258 364.742 12.38 357.318 4.93749C351.254 -1.14084 347.001 -1.46378 334.205 3.17988ZM326.798 19.1487C310.72 26.22 284.431 43.2542 275.187 52.5934C272.004 55.808 261.954 62.3745 252.851 67.1852C235.319 76.4502 206.642 96.2368 192.239 109.008L183.585 116.68L191.748 131.031L199.912 145.381H215.215H230.518L229.927 158.373C229.598 165.647 228.146 173.213 226.63 175.565C224.087 179.507 224.237 179.888 229.072 181.768C239.524 185.834 261.098 185.903 281.436 181.937C292.128 179.85 305.459 177.67 311.06 177.092L321.244 176.04L311.986 180.973C306.894 183.685 297.313 187.33 290.693 189.073C281.876 191.393 278.48 193.171 277.995 195.723C277.632 197.638 276.536 200.19 275.562 201.395C274.346 202.898 274.99 204.229 277.612 205.636C279.715 206.764 281.436 208.956 281.436 210.506C281.436 214.548 271.78 226.116 268.404 226.116C266.84 226.116 261.424 230.346 256.369 235.517C243.927 248.249 228.035 258.629 216.424 261.612C207.483 263.91 206.511 264.732 202.482 273.403C200.101 278.529 198.144 285.879 198.134 289.737C198.11 299.216 207.457 317.512 213.806 320.411C218.346 322.484 218.616 323.251 217.487 330.806C216.466 337.616 216.907 339.607 220.151 342.859C225.271 347.991 231.444 348.024 231.444 342.92C231.444 338.197 234.652 331.907 237.063 331.907C238.046 331.907 238.85 334.83 238.85 338.403C238.85 341.976 239.335 344.899 239.927 344.899C240.52 344.899 246.102 341.903 252.335 338.241C264.872 330.877 277.286 327.959 311.003 324.45C335.019 321.95 349.993 323.073 363.683 328.397C368.855 330.409 376.651 332.753 381.008 333.607C388.257 335.027 388.836 334.864 387.827 331.677C386.47 327.393 391.012 326.911 394.38 330.979C397.392 334.619 402.555 334.524 405.658 330.775C407.804 328.184 407.158 326.935 400.794 321.385C396.757 317.865 392.414 314.166 391.14 313.165C389.868 312.163 388.777 309.498 388.718 307.243C388.657 304.986 386.259 296.875 383.387 289.22C378.57 276.378 377.792 275.346 373.337 275.894C366.638 276.716 351.607 268.093 340.309 256.946C329.278 246.061 321.022 229.594 319.268 214.98L318.044 204.773L327.05 222.247C336.091 239.789 347.856 254.615 361.045 265.086L368.127 270.708L372.234 264.047C375.676 258.462 377.087 257.573 380.956 258.546C385.481 259.685 385.546 259.548 384.33 251.417C383.237 244.11 383.539 242.985 386.883 241.922C388.97 241.257 390.677 239.849 390.677 238.793C390.677 234.166 375.329 205.088 363.987 188.221C347.78 164.125 347.762 160.092 363.829 155.676C385.026 149.849 402.501 139.863 416.562 125.545C423.71 118.264 429.559 111.61 429.559 110.76C429.559 104.713 394.898 88.2876 372.228 83.5883L358.275 80.6967L358.217 54.5756C358.123 11.1494 354.437 6.99391 326.798 19.1487ZM75.1451 38.7441C57.7572 41.4706 14.1347 54.4884 9.50215 58.3321C9.12814 58.6421 10.3131 63.0556 12.1351 68.1373L15.4493 77.3763L24.4127 72.8236C51.8286 58.8982 87.5598 51.6822 129.194 51.6655L155.625 51.6543L152.869 46.311C151.353 43.3729 148.624 40.3458 146.804 39.583C141.703 37.4487 87.4579 36.8121 75.1451 38.7441ZM338.037 40.3737C333.249 45.6781 332.125 57.9646 335.899 63.7386C340.22 70.3477 342.146 68.1688 341.198 57.7419C340.655 51.7768 341.276 47.6881 343.09 45.2642C345.668 41.8158 345.845 41.9197 347.088 47.5842C348.837 55.576 346.762 64.0021 341.909 68.6013L337.908 72.3912L342.49 71.7657C348.417 70.9584 351.733 64.2267 351.767 52.9238C351.813 37.9498 345.466 32.148 338.037 40.3737ZM99.9837 58.1744C72.3604 61.9828 24.9293 75.3143 18.1285 81.1792C17.4046 81.8028 18.4192 88.592 20.38 96.2665C24.8589 113.792 32.2651 158.93 35.4109 187.87L37.8105 209.943L65.6559 208.85C98.0044 207.579 109.21 205.773 133.312 197.941C155.534 190.721 170.657 184.448 179.806 178.659L186.971 174.125L177.867 162.8C163.057 144.375 161.579 128.83 173.19 113.572L178.108 107.109L174.003 97.4784C171.746 92.1796 167.289 81.1941 164.103 73.0649C159.481 61.2776 157.369 58.024 153.679 57.0088C146.232 54.9617 119.001 55.5519 99.9837 58.1744ZM106.714 77.7735C102.926 80.7598 101.835 83.2449 101.835 88.8964C101.835 95.2977 102.761 96.8474 109.519 101.755C118.208 108.063 129.271 109.262 134.106 104.418C135.787 102.731 137.015 98.347 137.015 94.0244C137.015 87.9944 135.794 85.3236 130.719 80.2364C123.189 72.6881 114.318 71.7768 106.714 77.7735ZM270.672 80.0044C265.579 85.1083 263.407 85.9658 255.519 85.9769C247.78 85.9881 246.467 86.4818 247.286 89.0783C247.861 90.9138 246.256 94.1748 243.329 97.1072C239.141 101.305 238.55 103.169 239.4 109.513C240.413 117.092 246.106 125.006 251.859 126.836C253.599 127.391 257.173 127.026 259.8 126.023C263.846 124.483 264.757 124.778 265.764 127.961C268.71 137.263 287.005 141.853 298.137 136.083C307.839 131.053 309.972 121.86 303.793 111.706L300.244 105.871L307.503 106.846C317.72 108.221 317.35 103.1 306.894 98.4101C302.565 96.4688 297.438 93.089 295.498 90.899C288.453 82.9461 283.637 88.7182 289.873 97.6399C292.686 101.666 292.6 101.766 286.32 101.766C282.782 101.766 278.777 102.161 277.421 102.644C275.94 103.169 273.711 100.858 271.843 96.8585C268.875 90.5037 268.895 90.023 272.285 86.376C275.886 82.5007 278.673 76.1068 277.344 74.7742C276.944 74.3734 273.942 76.7267 270.672 80.0044ZM70.6255 84.2694C58.5886 87.5137 57.398 88.1985 57.398 91.8734C57.398 94.1618 58.733 94.5033 63.8785 93.5363C69.4738 92.484 70.3589 92.8088 70.3589 95.9157C70.3589 99.8448 73.7509 101.766 80.6942 101.766C87.7301 101.766 85.9471 105.342 76.9134 109.347C71.7457 111.64 66.8965 112.568 63.9525 111.827C60.5846 110.979 59.2496 111.385 59.2496 113.258C59.2496 121.025 70.2737 122.495 82.8309 116.402C96.5787 109.73 100.341 97.755 89.5409 95.0397C86.2359 94.2082 85.4712 93.2988 86.8877 91.8789C87.9801 90.7839 88.8744 87.9665 88.8744 85.6187C88.8744 80.5333 85.4212 80.2791 70.6255 84.2694ZM111.041 86.053C107.364 90.4944 112.095 97.7253 119.603 99.1377C126.639 100.461 129.608 99.1265 129.608 94.6443C129.608 85.2846 116.644 79.2843 111.041 86.053ZM254.39 100.71C255.862 106.584 252.709 114.758 248.97 114.758C247.358 114.758 246.552 115.593 247.182 116.614C247.811 117.634 250.994 118.47 254.253 118.47C260.62 118.47 270.326 111.138 270.326 106.331C270.326 101.987 263.337 96.1978 258.091 96.1978C253.899 96.1978 253.41 96.7954 254.39 100.71ZM208.762 99.1247C206.533 101.378 207.153 106.339 210.151 110.227C212.9 113.792 212.956 113.792 215.706 110.227C218.883 106.105 219.359 101.766 216.631 101.766C215.613 101.766 214.78 103.186 214.78 104.921C214.78 108.861 211.697 105.932 210.793 101.135C210.44 99.2564 209.525 98.3526 208.762 99.1247ZM478.287 102.23C470.099 111.32 459.182 129.683 457.425 137.321C456.407 141.755 455.552 159.815 455.526 177.454C455.476 213.876 454.963 215.051 442.189 208.037C434.192 203.646 434.003 203.969 438.004 215.211C445.333 235.801 444.674 249.795 436.475 247.738C432.424 246.723 432.337 247.052 432.337 263.189C432.337 277.005 431.709 280.524 428.467 284.912C421.801 293.93 415.893 295.717 403.86 292.36C398.166 290.773 393.358 289.626 393.171 289.813C392.984 290.001 393.719 294.041 394.804 298.793C396.222 305.008 398.022 308.002 401.22 309.461C407.408 312.288 421.663 311.946 430.485 308.761C434.559 307.289 443.931 306.05 451.315 306.005C458.699 305.96 464.72 305.296 464.698 304.531C464.676 303.767 463.028 301.051 461.036 298.499C453.889 289.34 456.418 283.635 473.049 271.395C479.679 266.513 485.106 262.295 485.106 262.018C485.106 261.744 483.514 257.469 481.569 252.523C476.257 239.015 475.341 228.863 477.591 208.436C479.835 188.065 485.623 173.252 499.368 152.712C513.02 132.313 516.216 117.653 509.013 108.475C500.626 97.7884 485.124 94.6369 478.287 102.23ZM282.352 112.861C284.083 120.76 281.906 126.45 277.586 125.318C274.648 124.548 274.392 124.962 275.979 127.931C277.801 131.344 282.685 132.449 292.545 131.675C298.636 131.198 304.073 124.685 302.621 119.604C300.866 113.449 292.948 107.334 286.74 107.334C281.491 107.334 281.217 107.679 282.352 112.861ZM329.728 117.592C329.644 119.663 330.901 123.252 332.52 125.569C334.855 128.911 336.004 129.333 338.074 127.61C340.972 125.199 341.685 114.758 338.95 114.758C337.997 114.758 336.932 117.471 336.582 120.79L335.949 126.821L332.914 120.326C330.657 115.496 329.839 114.795 329.728 117.592ZM383.211 124.483C375.168 129.912 370.525 138.509 374.267 141.046C380.692 145.402 399.209 139.171 404.412 130.905C410.107 121.853 394.234 117.044 383.211 124.483ZM389.751 128.466C383.021 131.406 377.657 137.053 381.656 136.988C386.505 136.911 400.186 129.661 399.029 127.783C397.563 125.403 396.596 125.476 389.751 128.466ZM322.17 137.837C322.17 145.554 325.484 151.877 329.53 151.877C332.655 151.877 333.253 150.717 333.129 144.917L332.979 137.957L330.487 143.525L327.996 149.093L326.697 141.205C325.302 132.727 322.17 130.398 322.17 137.837ZM137.015 136.441C130.273 137.549 122.202 140.957 122.202 142.694C122.202 143.52 123.995 144.463 126.185 144.787C129.157 145.231 130.812 147.614 132.721 154.197C136.263 166.422 139.544 165.671 138.487 152.876C137.665 142.939 137.759 142.699 143.349 140.747C147.93 139.143 148.504 138.406 146.272 136.992C144.745 136.023 143.078 135.331 142.569 135.454C142.06 135.578 139.561 136.022 137.015 136.441ZM103.144 147.471C102.424 148.193 101.835 151.189 101.835 154.127C101.835 159.856 108.969 168.581 113.654 168.581C118.114 168.581 122.445 162.889 121.839 157.818C121.149 152.026 116.648 149.958 116.648 155.435C116.648 161.537 111.523 159.967 107.818 152.729C105.968 149.115 103.865 146.749 103.144 147.471ZM75.721 153.926C72.7307 156.924 72.0938 159.184 72.9844 163.646C74.7008 172.247 77.9132 174.637 85.7712 173.16C93.2792 171.747 95.4622 167.835 92.7423 160.661C91.0648 156.241 84.2344 150.021 81.0553 150.021C80.2647 150.021 77.8632 151.779 75.721 153.926ZM79.6166 162.085C79.6166 165.797 80.5424 166.725 84.2455 166.725C89.1762 166.725 90.326 163.355 86.6525 159.672C82.979 155.99 79.6166 157.143 79.6166 162.085ZM216.446 196.333C203.954 203.085 191.872 220.472 189.747 234.761C188.958 240.064 189.651 243.438 192.448 247.924C195.737 253.197 197.203 253.956 204.106 253.954C214.983 253.952 231.134 245.738 248.448 231.4C256.273 224.921 264.605 218.171 266.964 216.398C270.932 213.416 271.011 213.028 268.012 211.202C264.386 208.993 263.696 201.953 266.801 198.841C269.189 196.447 262.679 195.259 238.85 193.737C225.543 192.887 222.082 193.288 216.446 196.333Z" fill="black"/>
<path fill-rule="evenodd" clip-rule="evenodd" d="M99.9837 58.1744C72.3604 61.9828 24.9293 75.3143 18.1285 81.1792C17.4046 81.8028 18.4192 88.592 20.38 96.2665C24.8589 113.792 32.2651 158.93 35.4109 187.87L37.8105 209.943L65.6559 208.85C98.0044 207.579 109.21 205.773 133.312 197.941C155.534 190.721 170.657 184.448 179.806 178.659L186.971 174.125L177.867 162.8C163.057 144.375 161.579 128.83 173.19 113.572L178.108 107.109L174.003 97.4784C171.746 92.1796 167.289 81.1941 164.103 73.0649C159.481 61.2776 157.369 58.024 153.679 57.0088C146.232 54.9617 119.001 55.5519 99.9837 58.1744ZM101.835 88.8964C101.835 83.2449 102.926 80.7598 106.714 77.7735C114.318 71.7768 123.189 72.6881 130.719 80.2364C135.794 85.3236 137.015 87.9944 137.015 94.0244C137.015 98.347 135.787 102.731 134.106 104.418C129.271 109.262 118.208 108.063 109.519 101.755C102.761 96.8474 101.835 95.2977 101.835 88.8964ZM57.398 91.8734C57.398 88.1985 58.5886 87.5137 70.6255 84.2694C85.4212 80.2791 88.8744 80.5333 88.8744 85.6187C88.8744 87.9665 87.9801 90.7839 86.8877 91.8789C85.4712 93.2988 86.2359 94.2082 89.5409 95.0397C100.341 97.755 96.5787 109.73 82.8309 116.402C70.2737 122.495 59.2496 121.025 59.2496 113.258C59.2496 111.385 60.5846 110.979 63.9525 111.827C66.8965 112.568 71.7457 111.64 76.9134 109.347C85.9471 105.342 87.7301 101.766 80.6942 101.766C73.7509 101.766 70.3589 99.8448 70.3589 95.9157C70.3589 92.8088 69.4738 92.484 63.8785 93.5363C58.733 94.5033 57.398 94.1618 57.398 91.8734ZM122.202 142.694C122.202 140.957 130.273 137.549 137.015 136.441C139.561 136.022 142.06 135.578 142.569 135.454C143.078 135.331 144.745 136.023 146.272 136.992C148.504 138.406 147.93 139.143 143.349 140.747C137.759 142.699 137.665 142.939 138.487 152.876C139.544 165.671 136.263 166.422 132.721 154.197C130.812 147.614 129.157 145.231 126.185 144.787C123.995 144.463 122.202 143.52 122.202 142.694ZM101.835 154.127C101.835 151.189 102.424 148.193 103.144 147.471C103.865 146.749 105.968 149.115 107.818 152.729C111.523 159.967 116.648 161.537 116.648 155.435C116.648 149.958 121.149 152.026 121.839 157.818C122.445 162.889 118.114 168.581 113.654 168.581C108.969 168.581 101.835 159.856 101.835 154.127ZM72.9844 163.646C72.0938 159.184 72.7307 156.924 75.721 153.926C77.8632 151.779 80.2647 150.021 81.0553 150.021C84.2344 150.021 91.0648 156.241 92.7423 160.661C95.4622 167.835 93.2792 171.747 85.7712 173.16C77.9132 174.637 74.7008 172.247 72.9844 163.646Z" fill="#F9ECBF"/>
<path d="M111.041 86.053C107.364 90.4944 112.095 97.7253 119.603 99.1377C126.639 100.461 129.608 99.1265 129.608 94.6443C129.608 85.2846 116.644 79.2843 111.041 86.053Z" fill="#F9ECBF"/>
<path d="M75.1451 38.7441C57.7572 41.4706 14.1347 54.4884 9.50215 58.3321C9.12814 58.6421 10.3131 63.0556 12.1351 68.1373L15.4493 77.3763L24.4127 72.8236C51.8286 58.8982 87.5598 51.6822 129.194 51.6655L155.625 51.6543L152.869 46.311C151.353 43.3729 148.624 40.3458 146.804 39.583C141.703 37.4487 87.4579 36.8121 75.1451 38.7441Z" fill="#EA6169"/>
<path fill-rule="evenodd" clip-rule="evenodd" d="M326.798 19.1487C310.72 26.22 284.431 43.2542 275.187 52.5934C272.004 55.808 261.954 62.3745 252.851 67.1852C235.319 76.4502 206.642 96.2368 192.239 109.008L183.585 116.68L191.748 131.031L199.912 145.381H215.215H230.518L229.927 158.373C229.598 165.647 228.146 173.213 226.63 175.565C224.087 179.507 224.237 179.888 229.072 181.768C239.524 185.834 261.098 185.903 281.436 181.937C292.128 179.85 305.459 177.67 311.06 177.092L321.244 176.04L311.986 180.973C306.894 183.685 297.313 187.33 290.693 189.073C281.876 191.393 278.48 193.171 277.995 195.723C277.632 197.638 276.536 200.19 275.562 201.395C274.346 202.898 274.99 204.229 277.612 205.636C279.715 206.764 281.436 208.956 281.436 210.506C281.436 214.548 271.78 226.116 268.404 226.116C266.84 226.116 261.424 230.346 256.369 235.517C243.927 248.249 228.035 258.629 216.424 261.612C207.483 263.91 206.511 264.732 202.482 273.403C200.101 278.529 198.144 285.879 198.134 289.737C198.11 299.216 207.457 317.512 213.806 320.411C218.346 322.484 218.616 323.251 217.487 330.806C216.466 337.616 216.907 339.607 220.151 342.859C225.271 347.991 231.444 348.024 231.444 342.92C231.444 338.197 234.652 331.907 237.063 331.907C238.046 331.907 238.85 334.83 238.85 338.403C238.85 341.976 239.335 344.899 239.927 344.899C240.52 344.899 246.102 341.903 252.335 338.241C264.872 330.877 277.286 327.959 311.003 324.45C335.019 321.95 349.993 323.073 363.683 328.397C368.855 330.409 376.651 332.753 381.008 333.607C388.257 335.027 388.836 334.864 387.827 331.677C386.47 327.393 391.012 326.911 394.38 330.979C397.392 334.619 402.555 334.524 405.658 330.775C407.804 328.184 407.158 326.935 400.794 321.385C396.757 317.865 392.414 314.166 391.14 313.165C389.868 312.163 388.777 309.498 388.718 307.243C388.657 304.986 386.259 296.875 383.387 289.22C378.57 276.378 377.792 275.346 373.337 275.894C366.638 276.716 351.607 268.093 340.309 256.946C329.278 246.061 321.022 229.594 319.268 214.98L318.044 204.773L327.05 222.247C336.091 239.789 347.856 254.615 361.045 265.086L368.127 270.708L372.234 264.047C375.676 258.462 377.087 257.573 380.956 258.546C385.481 259.685 385.546 259.548 384.33 251.417C383.237 244.11 383.539 242.985 386.883 241.922C388.97 241.257 390.677 239.849 390.677 238.793C390.677 234.166 375.329 205.088 363.987 188.221C347.78 164.125 347.762 160.092 363.829 155.676C385.026 149.849 402.501 139.863 416.562 125.545C423.71 118.264 429.559 111.61 429.559 110.76C429.559 104.713 394.898 88.2876 372.228 83.5883L358.275 80.6967L358.217 54.5756C358.123 11.1494 354.437 6.99391 326.798 19.1487ZM335.899 63.7386C332.125 57.9646 333.249 45.6781 338.037 40.3737C345.466 32.148 351.813 37.9498 351.767 52.9238C351.733 64.2267 348.417 70.9584 342.49 71.7657L337.908 72.3912L341.909 68.6013C346.762 64.0021 348.837 55.576 347.088 47.5842C345.845 41.9197 345.668 41.8158 343.09 45.2642C341.276 47.6881 340.655 51.7768 341.198 57.7419C342.146 68.1688 340.22 70.3477 335.899 63.7386ZM255.519 85.9769C263.407 85.9658 265.579 85.1083 270.672 80.0044C273.942 76.7267 276.944 74.3734 277.344 74.7742C278.673 76.1068 275.886 82.5007 272.285 86.376C268.895 90.023 268.875 90.5037 271.843 96.8585C273.711 100.858 275.94 103.169 277.421 102.644C278.777 102.161 282.782 101.766 286.32 101.766C292.6 101.766 292.686 101.666 289.873 97.6399C283.637 88.7182 288.453 82.9461 295.498 90.899C297.438 93.089 302.565 96.4688 306.894 98.4101C317.35 103.1 317.72 108.221 307.503 106.846L300.244 105.871L303.793 111.706C309.972 121.86 307.839 131.053 298.137 136.083C287.005 141.853 268.71 137.263 265.764 127.961C264.757 124.778 263.846 124.483 259.8 126.023C257.173 127.026 253.599 127.391 251.859 126.836C246.106 125.006 240.413 117.092 239.4 109.513C238.55 103.169 239.141 101.305 243.329 97.1072C246.256 94.1748 247.861 90.9138 247.286 89.0783C246.467 86.4818 247.78 85.9881 255.519 85.9769ZM210.151 110.227C207.153 106.339 206.533 101.378 208.762 99.1247C209.525 98.3526 210.44 99.2564 210.793 101.135C211.697 105.932 214.78 108.861 214.78 104.921C214.78 103.186 215.613 101.766 216.631 101.766C219.359 101.766 218.883 106.105 215.706 110.227C212.956 113.792 212.9 113.792 210.151 110.227ZM332.52 125.569C330.901 123.252 329.644 119.663 329.728 117.592C329.839 114.795 330.657 115.496 332.914 120.326L335.949 126.821L336.582 120.79C336.932 117.471 337.997 114.758 338.95 114.758C341.685 114.758 340.972 125.199 338.074 127.61C336.004 129.333 334.855 128.911 332.52 125.569ZM374.267 141.046C370.525 138.509 375.168 129.912 383.211 124.483C394.234 117.044 410.107 121.853 404.412 130.905C399.209 139.171 380.692 145.402 374.267 141.046ZM329.53 151.877C325.484 151.877 322.17 145.554 322.17 137.837C322.17 130.398 325.302 132.727 326.697 141.205L327.996 149.093L330.487 143.525L332.979 137.957L333.129 144.917C333.253 150.717 332.655 151.877 329.53 151.877Z" fill="#F9ECBF"/>
<path d="M216.446 196.333C203.954 203.085 191.872 220.472 189.747 234.761C188.958 240.064 189.651 243.438 192.448 247.924C195.737 253.197 197.203 253.956 204.106 253.954C214.983 253.952 231.134 245.738 248.448 231.4C256.273 224.921 264.605 218.171 266.964 216.398C270.932 213.416 271.011 213.028 268.012 211.202C264.386 208.993 263.696 201.953 266.801 198.841C269.189 196.447 262.679 195.259 238.85 193.737C225.543 192.887 222.082 193.288 216.446 196.333Z" fill="#F9ECBF"/>
<path d="M282.352 112.861C284.083 120.76 281.906 126.45 277.586 125.318C274.648 124.548 274.392 124.962 275.979 127.931C277.801 131.344 282.685 132.449 292.545 131.675C298.636 131.198 304.073 124.685 302.621 119.604C300.866 113.449 292.948 107.334 286.74 107.334C281.491 107.334 281.217 107.679 282.352 112.861Z" fill="#F9ECBF"/>
<path d="M254.39 100.71C255.862 106.584 252.709 114.758 248.97 114.758C247.358 114.758 246.552 115.593 247.182 116.614C247.811 117.634 250.994 118.47 254.253 118.47C260.62 118.47 270.326 111.138 270.326 106.331C270.326 101.987 263.337 96.1978 258.091 96.1978C253.899 96.1978 253.41 96.7954 254.39 100.71Z" fill="#F9ECBF"/>
<path d="M389.751 128.466C383.021 131.406 377.657 137.053 381.656 136.988C386.505 136.911 400.186 129.661 399.029 127.783C397.563 125.403 396.596 125.476 389.751 128.466Z" fill="#F9ECBF"/>
<path d="M478.287 102.23C470.099 111.32 459.182 129.683 457.425 137.321C456.407 141.755 455.552 159.815 455.526 177.454C455.476 213.876 454.963 215.051 442.189 208.037C434.192 203.646 434.003 203.969 438.004 215.211C445.333 235.801 444.674 249.795 436.475 247.738C432.424 246.723 432.337 247.052 432.337 263.189C432.337 277.005 431.709 280.524 428.467 284.912C421.801 293.93 415.893 295.717 403.86 292.36C398.166 290.773 393.358 289.626 393.171 289.813C392.984 290.001 393.719 294.041 394.804 298.793C396.222 305.008 398.022 308.002 401.22 309.461C407.408 312.288 421.663 311.946 430.485 308.761C434.559 307.289 443.931 306.05 451.315 306.005C458.699 305.96 464.72 305.296 464.698 304.531C464.676 303.767 463.028 301.051 461.036 298.499C453.889 289.34 456.418 283.635 473.049 271.395C479.679 266.513 485.106 262.295 485.106 262.018C485.106 261.744 483.514 257.469 481.569 252.523C476.257 239.015 475.341 228.863 477.591 208.436C479.835 188.065 485.623 173.252 499.368 152.712C513.02 132.313 516.216 117.653 509.013 108.475C500.626 97.7884 485.124 94.6369 478.287 102.23Z" fill="#F9ECBF"/>
</svg>
