<svg width="1292" height="186" viewBox="0 0 1292 186" fill="none" xmlns="http://www.w3.org/2000/svg">
<path d="M106.08 90.1237C125.008 95.5317 141.856 89.4997 141.856 65.1637C141.856 38.9557 121.888 32.0917 108.576 28.5557C110.864 39.5797 107.952 68.6997 106.08 90.1237ZM104.208 117.372C105.04 154.812 113.568 154.812 113.568 162.924C113.568 171.66 103.792 178.94 88.816 178.94C72.384 178.94 63.024 170.204 63.024 152.732C63.024 138.172 69.264 119.244 69.264 98.6517C69.264 78.0597 63.024 61.2117 63.024 45.4037C63.024 36.2517 66.352 27.3077 78.832 27.9317C81.744 28.1397 82.16 27.7237 82.16 27.0997C82.16 26.4757 81.744 26.0597 79.664 25.4357C74.256 23.7717 67.808 24.1877 61.984 25.2277C33.28 29.5957 32.24 44.1557 44.512 53.5157C63.44 67.8677 51.168 94.6997 28.704 94.9077C14.976 95.1157 0 84.9237 0 58.2997C0 25.2277 23.92 4.01169 90.896 4.01169C106.08 4.01169 185.744 2.76368 185.744 60.3797C185.744 111.548 122.928 116.124 96.304 103.852C92.352 102.188 91.728 102.604 91.728 103.644C91.728 104.476 92.144 104.684 93.808 105.932C94.848 106.556 97.344 107.804 99.424 109.052C102.336 110.716 104.208 113.836 104.208 117.372Z" fill="#E8D9BA"/>
<path d="M238.88 145.66C238.88 140.529 240.128 136.924 242.624 134.844C245.12 132.764 248.101 131.724 251.568 131.724C255.173 131.724 258.224 132.764 260.72 134.844C263.355 136.924 264.672 140.529 264.672 145.66C264.672 150.652 263.355 154.257 260.72 156.476C258.224 158.694 255.173 159.804 251.568 159.804C248.101 159.804 245.12 158.694 242.624 156.476C240.128 154.257 238.88 150.652 238.88 145.66Z" fill="#E8D9BA"/>
<path d="M483.816 178.94C464.472 178.94 453.24 159.804 473.624 119.244C473.832 118.828 474.456 117.372 473 117.372C472.168 117.372 471.544 117.58 468.424 124.444C458.024 145.452 447 178.732 415.384 178.732C369.416 178.732 385.848 108.428 385.848 76.8117C385.848 64.1237 383.352 49.9797 382.728 47.0677C379.192 26.4757 369.832 17.5317 362.136 22.9397C355.896 27.0997 354.024 37.7077 364.008 51.8517C379.192 73.2757 372.744 94.6997 351.528 94.9077C336.76 95.1157 321.576 84.9237 321.576 56.8437C321.576 5.88369 372.12 4.01169 389.8 4.01169C418.712 4.01169 427.24 9.21168 427.24 25.4357C427.24 39.1637 420.792 53.5157 420.792 94.0757C420.792 116.54 418.92 136.508 432.648 136.508C450.952 136.508 461.976 101.356 461.976 79.5157C461.976 62.0437 454.904 46.0277 454.904 29.8037C454.904 10.2517 465.096 4.01169 479.448 4.01169C493.8 4.01169 502.744 10.0437 502.744 29.1797C502.744 44.9877 496.296 61.8357 496.296 104.06C496.296 155.644 505.656 154.396 505.656 162.924C505.656 171.66 495.88 178.94 483.816 178.94Z" fill="#E8D9BA"/>
<path d="M565.529 145.66C565.529 140.529 566.777 136.924 569.273 134.844C571.769 132.764 574.751 131.724 578.217 131.724C581.823 131.724 584.873 132.764 587.369 134.844C590.004 136.924 591.321 140.529 591.321 145.66C591.321 150.652 590.004 154.257 587.369 156.476C584.873 158.694 581.823 159.804 578.217 159.804C574.751 159.804 571.769 158.694 569.273 156.476C566.777 154.257 565.529 150.652 565.529 145.66Z" fill="#E8D9BA"/>
<path d="M732.466 45.6117C736.626 57.0517 747.442 91.5797 747.442 99.4837C747.442 155.436 757.01 154.396 757.01 162.924C757.01 171.66 747.025 178.94 732.049 178.94C715.618 178.94 706.258 170.204 706.258 152.732C706.258 138.172 712.497 122.156 712.497 86.7957C712.497 64.1237 710.002 49.9797 709.378 47.0677C705.841 26.4757 696.482 17.5317 688.786 22.9397C682.546 27.0997 680.674 37.7077 690.658 51.8517C705.842 73.2757 699.393 94.6997 678.177 94.9077C663.409 95.1157 648.226 84.9237 648.226 56.8437C648.226 5.88369 698.77 4.01169 716.45 4.01169C726.018 4.01169 755.762 2.76368 770.322 26.0597C779.474 40.6197 783.634 66.6197 790.082 113.628C790.29 114.668 790.914 114.876 791.746 114.876C792.578 114.876 792.994 114.46 792.994 113.42C792.994 86.5877 797.986 39.7877 822.114 13.9957C831.266 4.01169 836.882 4.01169 846.45 4.01169C860.594 4.01169 869.538 10.0437 869.538 29.1797C869.538 44.9877 863.298 61.8357 863.298 101.772C863.298 155.644 874.738 154.396 874.738 163.34C874.738 171.66 864.962 178.94 849.778 178.94C833.554 178.94 823.986 170.204 823.986 132.972C823.986 121.532 825.026 61.0037 836.049 42.6997C837.714 40.2037 837.922 38.9557 837.09 38.5397C835.842 37.9157 831.89 41.4517 828.562 48.1077C822.114 61.0037 817.33 86.5877 815.25 109.052C813.378 131.724 814.834 143.372 814.21 148.364C812.13 163.132 780.306 173.116 766.37 148.572C754.098 126.524 751.602 70.9877 734.338 44.7797C733.922 44.1557 733.506 43.9477 732.882 44.1557C732.258 44.3637 732.258 44.9877 732.466 45.6117Z" fill="#E8D9BA"/>
<path d="M933.616 145.66C933.616 140.529 934.864 136.924 937.36 134.844C939.856 132.764 942.837 131.724 946.304 131.724C949.909 131.724 952.96 132.764 955.456 134.844C958.091 136.924 959.408 140.529 959.408 145.66C959.408 150.652 958.091 154.257 955.456 156.476C952.96 158.694 949.909 159.804 946.304 159.804C942.837 159.804 939.856 158.694 937.36 156.476C934.864 154.257 933.616 150.652 933.616 145.66Z" fill="#E8D9BA"/>
<path d="M1105.54 101.564C1111.99 101.772 1131.96 102.604 1139.86 103.852C1137.78 85.9637 1135.7 65.1637 1134.87 48.5237C1134.87 48.1077 1134.46 47.6917 1133.83 47.6917C1133.42 47.6917 1133 48.1077 1132.79 48.5237C1128.63 64.5397 1125.1 79.0997 1123.64 85.1317C1120.52 95.7397 1118.02 98.6517 1114.9 99.0677C1113.45 99.2757 1107.21 99.4837 1105.54 99.4837C1104.92 99.4837 1104.5 99.6917 1104.5 100.316C1104.5 100.94 1104.92 101.564 1105.54 101.564ZM1141.94 122.988C1117.82 120.7 1111.16 127.564 1105.96 138.796C1093.9 164.172 1079.13 178.94 1052.71 178.94C1024.63 178.94 1009.66 162.3 1009.66 142.748C1009.66 122.988 1025.26 109.468 1034.82 104.892C1046.06 99.8997 1055.62 103.436 1051.67 114.876C1048.55 123.404 1050.42 135.052 1059.99 135.052C1085.16 135.052 1113.03 53.3077 1109.5 35.4197C1105.96 16.2837 1087.66 15.6597 1079.13 20.6517C1072.26 24.3957 1056.46 40.2037 1070.6 57.6757C1083.08 73.2757 1078.3 94.6997 1057.08 94.9077C1042.31 95.1157 1026.3 84.9237 1024.22 60.5877C1021.1 24.3957 1052.09 4.01169 1101.18 4.01169C1101.18 4.01169 1118.02 4.01169 1136.95 4.01169C1150.06 4.01169 1160.25 9.21168 1163.16 25.4357C1165.86 39.1637 1162.12 53.5157 1170.65 94.0757C1184.58 159.388 1202.68 161.052 1204.55 170.828C1205.8 178.316 1197.27 185.388 1182.09 185.388C1163.58 185.388 1145.69 175.196 1143.61 140.044C1143.4 136.092 1142.78 129.852 1141.94 122.988Z" fill="#E8D9BA"/>
<path d="M1252.95 145.66C1252.95 140.529 1254.2 136.924 1256.7 134.844C1259.19 132.764 1262.17 131.724 1265.64 131.724C1269.25 131.724 1272.3 132.764 1274.79 134.844C1277.43 136.924 1278.75 140.529 1278.75 145.66C1278.75 150.652 1277.43 154.257 1274.79 156.476C1272.3 158.694 1269.25 159.804 1265.64 159.804C1262.17 159.804 1259.19 158.694 1256.7 156.476C1254.2 154.257 1252.95 150.652 1252.95 145.66Z" fill="#E8D9BA"/>
<path d="M119.08 86.1237C138.008 91.5317 154.856 85.4997 154.856 61.1637C154.856 34.9557 134.888 28.0917 121.576 24.5557C123.864 35.5797 120.952 64.6997 119.08 86.1237ZM117.208 113.372C118.04 150.812 126.568 150.812 126.568 158.924C126.568 167.66 116.792 174.94 101.816 174.94C85.384 174.94 76.024 166.204 76.024 148.732C76.024 134.172 82.264 115.244 82.264 94.6517C82.264 74.0597 76.024 57.2117 76.024 41.4037C76.024 32.2517 79.352 23.3077 91.832 23.9317C94.744 24.1397 95.16 23.7237 95.16 23.0997C95.16 22.4757 94.744 22.0597 92.664 21.4357C87.256 19.7717 80.808 20.1877 74.984 21.2277C46.28 25.5957 45.24 40.1557 57.512 49.5157C76.44 63.8677 64.168 90.6997 41.704 90.9077C27.976 91.1157 13 80.9237 13 54.2997C13 21.2277 36.92 0.011688 103.896 0.011688C119.08 0.011688 198.744 -1.23632 198.744 56.3797C198.744 107.548 135.928 112.124 109.304 99.8517C105.352 98.1877 104.728 98.6037 104.728 99.6437C104.728 100.476 105.144 100.684 106.808 101.932C107.848 102.556 110.344 103.804 112.424 105.052C115.336 106.716 117.208 109.836 117.208 113.372Z" fill="#1B1215"/>
<path d="M251.88 141.66C251.88 136.529 253.128 132.924 255.624 130.844C258.12 128.764 261.101 127.724 264.568 127.724C268.173 127.724 271.224 128.764 273.72 130.844C276.355 132.924 277.672 136.529 277.672 141.66C277.672 146.652 276.355 150.257 273.72 152.476C271.224 154.694 268.173 155.804 264.568 155.804C261.101 155.804 258.12 154.694 255.624 152.476C253.128 150.257 251.88 146.652 251.88 141.66Z" fill="#1B1215"/>
<path d="M496.816 174.94C477.472 174.94 466.24 155.804 486.624 115.244C486.832 114.828 487.456 113.372 486 113.372C485.168 113.372 484.544 113.58 481.424 120.444C471.024 141.452 460 174.732 428.384 174.732C382.416 174.732 398.848 104.428 398.848 72.8117C398.848 60.1237 396.352 45.9797 395.728 43.0677C392.192 22.4757 382.832 13.5317 375.136 18.9397C368.896 23.0997 367.024 33.7077 377.008 47.8517C392.192 69.2757 385.744 90.6997 364.528 90.9077C349.76 91.1157 334.576 80.9237 334.576 52.8437C334.576 1.88369 385.12 0.011688 402.8 0.011688C431.712 0.011688 440.24 5.21168 440.24 21.4357C440.24 35.1637 433.792 49.5157 433.792 90.0757C433.792 112.54 431.92 132.508 445.648 132.508C463.952 132.508 474.976 97.3557 474.976 75.5157C474.976 58.0437 467.904 42.0277 467.904 25.8037C467.904 6.25168 478.096 0.011688 492.448 0.011688C506.8 0.011688 515.744 6.04368 515.744 25.1797C515.744 40.9877 509.296 57.8357 509.296 100.06C509.296 151.644 518.656 150.396 518.656 158.924C518.656 167.66 508.88 174.94 496.816 174.94Z" fill="#1B1215"/>
<path d="M578.529 141.66C578.529 136.529 579.777 132.924 582.273 130.844C584.769 128.764 587.751 127.724 591.217 127.724C594.823 127.724 597.873 128.764 600.369 130.844C603.004 132.924 604.321 136.529 604.321 141.66C604.321 146.652 603.004 150.257 600.369 152.476C597.873 154.694 594.823 155.804 591.217 155.804C587.751 155.804 584.769 154.694 582.273 152.476C579.777 150.257 578.529 146.652 578.529 141.66Z" fill="#1B1215"/>
<path d="M745.466 41.6117C749.626 53.0517 760.442 87.5797 760.442 95.4837C760.442 151.436 770.01 150.396 770.01 158.924C770.01 167.66 760.025 174.94 745.049 174.94C728.618 174.94 719.258 166.204 719.258 148.732C719.258 134.172 725.497 118.156 725.497 82.7957C725.497 60.1237 723.002 45.9797 722.378 43.0677C718.841 22.4757 709.482 13.5317 701.786 18.9397C695.546 23.0997 693.674 33.7077 703.658 47.8517C718.842 69.2757 712.393 90.6997 691.177 90.9077C676.409 91.1157 661.226 80.9237 661.226 52.8437C661.226 1.88369 711.77 0.011688 729.45 0.011688C739.018 0.011688 768.762 -1.23632 783.322 22.0597C792.474 36.6197 796.634 62.6197 803.082 109.628C803.29 110.668 803.914 110.876 804.746 110.876C805.578 110.876 805.994 110.46 805.994 109.42C805.994 82.5877 810.986 35.7877 835.114 9.99568C844.266 0.0116882 849.882 0.011688 859.45 0.011688C873.594 0.011688 882.538 6.04368 882.538 25.1797C882.538 40.9877 876.298 57.8357 876.298 97.7717C876.298 151.644 887.738 150.396 887.738 159.34C887.738 167.66 877.962 174.94 862.778 174.94C846.554 174.94 836.986 166.204 836.986 128.972C836.986 117.532 838.026 57.0037 849.049 38.6997C850.714 36.2037 850.922 34.9557 850.09 34.5397C848.842 33.9157 844.89 37.4517 841.562 44.1077C835.114 57.0037 830.33 82.5877 828.25 105.052C826.378 127.724 827.834 139.372 827.21 144.364C825.13 159.132 793.306 169.116 779.37 144.572C767.098 122.524 764.602 66.9877 747.338 40.7797C746.922 40.1557 746.506 39.9477 745.882 40.1557C745.258 40.3637 745.258 40.9877 745.466 41.6117Z" fill="#1B1215"/>
<path d="M946.616 141.66C946.616 136.529 947.864 132.924 950.36 130.844C952.856 128.764 955.837 127.724 959.304 127.724C962.909 127.724 965.96 128.764 968.456 130.844C971.091 132.924 972.408 136.529 972.408 141.66C972.408 146.652 971.091 150.257 968.456 152.476C965.96 154.694 962.909 155.804 959.304 155.804C955.837 155.804 952.856 154.694 950.36 152.476C947.864 150.257 946.616 146.652 946.616 141.66Z" fill="#1B1215"/>
<path d="M1118.54 97.5637C1124.99 97.7717 1144.96 98.6037 1152.86 99.8517C1150.78 81.9637 1148.7 61.1637 1147.87 44.5237C1147.87 44.1077 1147.46 43.6917 1146.83 43.6917C1146.42 43.6917 1146 44.1077 1145.79 44.5237C1141.63 60.5397 1138.1 75.0997 1136.64 81.1317C1133.52 91.7397 1131.02 94.6517 1127.9 95.0677C1126.45 95.2757 1120.21 95.4837 1118.54 95.4837C1117.92 95.4837 1117.5 95.6917 1117.5 96.3157C1117.5 96.9397 1117.92 97.5637 1118.54 97.5637ZM1154.94 118.988C1130.82 116.7 1124.16 123.564 1118.96 134.796C1106.9 160.172 1092.13 174.94 1065.71 174.94C1037.63 174.94 1022.66 158.3 1022.66 138.748C1022.66 118.988 1038.26 105.468 1047.82 100.892C1059.06 95.8997 1068.62 99.4357 1064.67 110.876C1061.55 119.404 1063.42 131.052 1072.99 131.052C1098.16 131.052 1126.03 49.3077 1122.5 31.4197C1118.96 12.2837 1100.66 11.6597 1092.13 16.6517C1085.26 20.3957 1069.46 36.2037 1083.6 53.6757C1096.08 69.2757 1091.3 90.6997 1070.08 90.9077C1055.31 91.1157 1039.3 80.9237 1037.22 56.5877C1034.1 20.3957 1065.09 0.011688 1114.18 0.011688C1114.18 0.011688 1131.02 0.011688 1149.95 0.011688C1163.06 0.011688 1173.25 5.21168 1176.16 21.4357C1178.86 35.1637 1175.12 49.5157 1183.65 90.0757C1197.58 155.388 1215.68 157.052 1217.55 166.828C1218.8 174.316 1210.27 181.388 1195.09 181.388C1176.58 181.388 1158.69 171.196 1156.61 136.044C1156.4 132.092 1155.78 125.852 1154.94 118.988Z" fill="#1B1215"/>
<path d="M1265.95 141.66C1265.95 136.529 1267.2 132.924 1269.7 130.844C1272.19 128.764 1275.17 127.724 1278.64 127.724C1282.25 127.724 1285.3 128.764 1287.79 130.844C1290.43 132.924 1291.75 136.529 1291.75 141.66C1291.75 146.652 1290.43 150.257 1287.79 152.476C1285.3 154.694 1282.25 155.804 1278.64 155.804C1275.17 155.804 1272.19 154.694 1269.7 152.476C1267.2 150.257 1265.95 146.652 1265.95 141.66Z" fill="#1B1215"/>
</svg>
